G04 (created by PCBNEW (2013-jul-07)-stable) date Mon 28 Dec 2015 12:05:22 PM PST*
%MOIN*%
G04 Gerber Fmt 3.4, Leading zero omitted, Abs format*
%FSLAX34Y34*%
G01*
G70*
G90*
G04 APERTURE LIST*
%ADD10C,0.00393701*%
%ADD11R,0.0393X0.0098*%
%ADD12R,0.0098X0.0393*%
%ADD13R,0.1614X0.1614*%
%ADD14R,0.0275X0.0354*%
%ADD15R,0.0314X0.0314*%
%ADD16R,0.0354X0.0275*%
%ADD17R,0.0118X0.0472*%
%ADD18R,0.0472X0.0433*%
%ADD19R,0.0866X0.0236*%
%ADD20O,0.074X0.074*%
%ADD21C,0.0122*%
%ADD22C,0.01*%
G04 APERTURE END LIST*
G54D10*
G54D11*
X56706Y-37343D03*
X56706Y-37540D03*
X56706Y-37736D03*
X56706Y-37933D03*
X56706Y-38130D03*
X56706Y-38326D03*
X56706Y-38523D03*
X56706Y-38720D03*
X56706Y-38916D03*
X56706Y-39113D03*
G54D12*
X57041Y-39448D03*
X57238Y-39448D03*
X57434Y-39448D03*
X57631Y-39448D03*
X57828Y-39448D03*
X58024Y-39448D03*
X58221Y-39448D03*
X58418Y-39448D03*
X58614Y-39448D03*
X58811Y-39448D03*
G54D11*
X59146Y-39113D03*
X59146Y-38916D03*
X59146Y-38720D03*
X59146Y-38523D03*
X59146Y-38326D03*
X59146Y-38130D03*
X59146Y-37933D03*
X59146Y-37736D03*
X59146Y-37540D03*
X59146Y-37343D03*
G54D12*
X58811Y-37008D03*
X58614Y-37008D03*
X58418Y-37008D03*
X58221Y-37008D03*
X58024Y-37008D03*
X57828Y-37008D03*
X57631Y-37008D03*
X57434Y-37008D03*
X57238Y-37008D03*
X57041Y-37008D03*
G54D13*
X57926Y-38228D03*
G54D14*
X56401Y-43358D03*
X55891Y-43358D03*
G54D15*
X56815Y-42787D03*
X56815Y-43377D03*
G54D16*
X55989Y-39558D03*
X55989Y-39048D03*
X58477Y-40453D03*
X58477Y-40963D03*
X59839Y-39717D03*
X59839Y-40227D03*
G54D14*
X55852Y-36114D03*
X56362Y-36114D03*
X58568Y-43909D03*
X59078Y-43909D03*
X55852Y-36586D03*
X56362Y-36586D03*
X59383Y-40732D03*
X59893Y-40732D03*
X59383Y-41240D03*
X59893Y-41240D03*
G54D16*
X58949Y-40768D03*
X58949Y-41278D03*
X58949Y-42185D03*
X58949Y-42695D03*
G54D17*
X57494Y-41700D03*
X57750Y-41700D03*
X58005Y-41700D03*
X58261Y-41700D03*
X58261Y-43362D03*
X58005Y-43362D03*
X57750Y-43362D03*
X57494Y-43362D03*
G54D14*
X57230Y-43909D03*
X57740Y-43909D03*
G54D17*
X59502Y-41739D03*
X59758Y-41739D03*
X60013Y-41739D03*
X60269Y-41739D03*
X60269Y-43401D03*
X60013Y-43401D03*
X59758Y-43401D03*
X59502Y-43401D03*
G54D16*
X56737Y-41646D03*
X56737Y-42156D03*
X58036Y-40701D03*
X58036Y-41211D03*
G54D18*
X56796Y-41152D03*
X57464Y-41152D03*
X57464Y-40602D03*
X56796Y-40602D03*
G54D19*
X57643Y-46139D03*
X59689Y-46139D03*
X57643Y-45639D03*
X57643Y-46639D03*
X57643Y-47139D03*
X59689Y-45639D03*
X59689Y-46639D03*
X59689Y-47139D03*
G54D16*
X60477Y-46605D03*
X60477Y-46095D03*
X56894Y-46134D03*
X56894Y-46644D03*
X56894Y-45306D03*
X56894Y-44796D03*
X61146Y-46605D03*
X61146Y-46095D03*
G54D14*
X57740Y-44381D03*
X57230Y-44381D03*
X55891Y-45444D03*
X56401Y-45444D03*
G54D15*
X58921Y-44854D03*
X58331Y-44854D03*
G54D14*
X57858Y-44854D03*
X57348Y-44854D03*
X55891Y-46429D03*
X56401Y-46429D03*
G54D20*
X55083Y-39873D03*
X55083Y-38873D03*
X55083Y-37873D03*
X55083Y-36873D03*
X55083Y-35873D03*
X62071Y-35877D03*
X62071Y-36877D03*
X62071Y-37877D03*
X62071Y-38877D03*
X62071Y-39877D03*
X62071Y-40877D03*
X62071Y-41877D03*
X62071Y-42877D03*
X62071Y-43877D03*
X62071Y-44877D03*
X62071Y-45877D03*
X62071Y-46877D03*
X55083Y-43869D03*
X55083Y-42869D03*
X55083Y-41869D03*
X55083Y-40869D03*
X55083Y-44873D03*
X55083Y-45873D03*
X55083Y-46873D03*
G54D21*
X57339Y-36161D03*
X57012Y-40129D03*
X57170Y-41625D03*
X59571Y-42295D03*
X59296Y-44854D03*
X60477Y-42177D03*
X60477Y-45484D03*
X58193Y-42373D03*
X58626Y-43003D03*
X59973Y-42677D03*
X56697Y-43909D03*
X57957Y-40326D03*
X57886Y-39999D03*
X58233Y-40090D03*
X58556Y-39999D03*
X58823Y-41822D03*
X59847Y-39303D03*
X56233Y-38385D03*
X56697Y-36940D03*
X60831Y-45366D03*
X57052Y-36468D03*
G54D22*
X58949Y-40767D02*
X58969Y-40688D01*
X58812Y-39621D02*
X58812Y-39448D01*
X58469Y-42531D02*
X58477Y-42523D01*
X58477Y-40964D02*
X58477Y-42523D01*
X58626Y-43003D02*
X58626Y-42688D01*
X58626Y-42688D02*
X58469Y-42531D01*
X58006Y-43363D02*
X58006Y-42994D01*
X58006Y-42994D02*
X58469Y-42531D01*
X58477Y-40964D02*
X58949Y-40767D01*
X58812Y-39621D02*
X59020Y-39830D01*
X59020Y-39830D02*
X59020Y-40562D01*
X59020Y-40562D02*
X58949Y-40633D01*
X58949Y-40633D02*
X58949Y-40767D01*
X58949Y-42696D02*
X58941Y-42688D01*
X58941Y-42688D02*
X58626Y-42688D01*
X56705Y-38917D02*
X56705Y-39114D01*
X56686Y-39389D02*
X56619Y-39460D01*
X56619Y-39460D02*
X56481Y-39598D01*
X56481Y-39598D02*
X55871Y-40208D01*
X55871Y-40208D02*
X55871Y-43338D01*
X55871Y-43338D02*
X55890Y-43358D01*
X55890Y-43358D02*
X55890Y-43614D01*
X55890Y-43614D02*
X56186Y-43909D01*
X56186Y-43909D02*
X56697Y-43909D01*
X55989Y-39558D02*
X56028Y-39598D01*
X56028Y-39598D02*
X56481Y-39598D01*
X59973Y-42677D02*
X60014Y-42717D01*
X60014Y-42717D02*
X60014Y-43402D01*
X56705Y-39114D02*
X56686Y-39114D01*
X56686Y-39114D02*
X56686Y-39389D01*
X56705Y-38720D02*
X57434Y-38720D01*
X57434Y-38720D02*
X57926Y-38228D01*
X57237Y-37007D02*
X57237Y-37539D01*
X57237Y-37539D02*
X57926Y-38228D01*
X59146Y-39114D02*
X58910Y-39114D01*
X58910Y-39114D02*
X58654Y-38858D01*
X58654Y-38858D02*
X58556Y-38858D01*
X58556Y-38858D02*
X57926Y-38228D01*
X59894Y-40732D02*
X59839Y-40755D01*
X59839Y-40755D02*
X59839Y-40228D01*
X56815Y-43377D02*
X56579Y-43377D01*
X56579Y-43377D02*
X56402Y-43358D01*
X58418Y-37007D02*
X58418Y-36653D01*
X58418Y-36653D02*
X58615Y-36456D01*
X61154Y-37539D02*
X61343Y-37728D01*
X61343Y-37728D02*
X61343Y-38436D01*
X61343Y-38436D02*
X61540Y-38633D01*
X61540Y-38633D02*
X61540Y-39346D01*
X61540Y-39346D02*
X62071Y-39877D01*
X58615Y-36456D02*
X60071Y-36456D01*
X60071Y-36456D02*
X61154Y-37539D01*
X58615Y-37007D02*
X58615Y-36732D01*
X58615Y-36732D02*
X58693Y-36653D01*
X61154Y-37834D02*
X61154Y-38543D01*
X61154Y-38543D02*
X61351Y-38740D01*
X61351Y-38740D02*
X61351Y-39448D01*
X61351Y-39448D02*
X61548Y-39645D01*
X61548Y-39645D02*
X61548Y-40354D01*
X61548Y-40354D02*
X62071Y-40877D01*
X58693Y-36653D02*
X59973Y-36653D01*
X59973Y-36653D02*
X61154Y-37834D01*
X58812Y-37007D02*
X58812Y-36850D01*
X60957Y-37913D02*
X60957Y-38621D01*
X60957Y-38621D02*
X61154Y-38818D01*
X61154Y-38818D02*
X61154Y-39527D01*
X61154Y-39527D02*
X61351Y-39724D01*
X61351Y-39724D02*
X61351Y-40432D01*
X61351Y-40432D02*
X61548Y-40629D01*
X61548Y-40629D02*
X61548Y-41354D01*
X61548Y-41354D02*
X62071Y-41877D01*
X58812Y-36850D02*
X59894Y-36850D01*
X59894Y-36850D02*
X60957Y-37913D01*
X59146Y-37342D02*
X60111Y-37342D01*
X60760Y-37991D02*
X60760Y-38700D01*
X60760Y-38700D02*
X60957Y-38897D01*
X60957Y-38897D02*
X60957Y-39606D01*
X60957Y-39606D02*
X61154Y-39803D01*
X61154Y-39803D02*
X61154Y-40511D01*
X61154Y-40511D02*
X61351Y-40708D01*
X61351Y-40708D02*
X61351Y-41456D01*
X61351Y-41456D02*
X61548Y-41653D01*
X61548Y-41653D02*
X61548Y-42354D01*
X61548Y-42354D02*
X62071Y-42877D01*
X60111Y-37342D02*
X60760Y-37991D01*
X59146Y-37539D02*
X60032Y-37539D01*
X60563Y-38070D02*
X60563Y-38779D01*
X60563Y-38779D02*
X60760Y-38976D01*
X60760Y-38976D02*
X60760Y-39684D01*
X60760Y-39684D02*
X60957Y-39881D01*
X60957Y-39881D02*
X60957Y-40590D01*
X60957Y-40590D02*
X61154Y-40787D01*
X61154Y-40787D02*
X61154Y-41535D01*
X61154Y-41535D02*
X61351Y-41732D01*
X61351Y-41732D02*
X61351Y-42440D01*
X61351Y-42440D02*
X61548Y-42637D01*
X61548Y-42637D02*
X61548Y-43354D01*
X61548Y-43354D02*
X62071Y-43877D01*
X60032Y-37539D02*
X60563Y-38070D01*
X59146Y-37736D02*
X59953Y-37736D01*
X60367Y-38149D02*
X60367Y-38858D01*
X60367Y-38858D02*
X60563Y-39054D01*
X60563Y-39054D02*
X60563Y-39763D01*
X60563Y-39763D02*
X60760Y-39960D01*
X60760Y-39960D02*
X60760Y-40669D01*
X60760Y-40669D02*
X60957Y-40866D01*
X60957Y-40866D02*
X60957Y-41614D01*
X60957Y-41614D02*
X61154Y-41810D01*
X61154Y-41810D02*
X61154Y-42519D01*
X61154Y-42519D02*
X61351Y-42716D01*
X61351Y-42716D02*
X61351Y-43425D01*
X61351Y-43425D02*
X61548Y-43621D01*
X61548Y-43621D02*
X61548Y-44354D01*
X61548Y-44354D02*
X62071Y-44877D01*
X59953Y-37736D02*
X60367Y-38149D01*
X59146Y-37932D02*
X59875Y-37932D01*
X59875Y-37932D02*
X60170Y-38228D01*
X60170Y-38228D02*
X60170Y-38936D01*
X60170Y-38936D02*
X60367Y-39133D01*
X60367Y-39133D02*
X60367Y-39842D01*
X60367Y-39842D02*
X60563Y-40039D01*
X60563Y-40039D02*
X60563Y-40747D01*
X60563Y-40747D02*
X60760Y-40944D01*
X60760Y-40944D02*
X60760Y-41692D01*
X60760Y-41692D02*
X60957Y-41889D01*
X60957Y-41889D02*
X60957Y-42598D01*
X60957Y-42598D02*
X61154Y-42795D01*
X61154Y-42795D02*
X61154Y-43503D01*
X61154Y-43503D02*
X61351Y-43700D01*
X61351Y-43700D02*
X61351Y-44448D01*
X61351Y-44448D02*
X61548Y-44645D01*
X61548Y-44645D02*
X61548Y-45354D01*
X61548Y-45354D02*
X62071Y-45877D01*
X59146Y-38129D02*
X59796Y-38129D01*
X59796Y-38129D02*
X59973Y-38306D01*
X59973Y-38306D02*
X59973Y-39015D01*
X59973Y-39015D02*
X60170Y-39212D01*
X60170Y-39212D02*
X60170Y-39921D01*
X60170Y-39921D02*
X60367Y-40117D01*
X60367Y-40117D02*
X60367Y-40826D01*
X60367Y-40826D02*
X60563Y-41023D01*
X60563Y-41023D02*
X60563Y-41771D01*
X60563Y-41771D02*
X60760Y-41968D01*
X60760Y-41968D02*
X60760Y-42677D01*
X60760Y-42677D02*
X60957Y-42873D01*
X60957Y-42873D02*
X60957Y-43582D01*
X60957Y-43582D02*
X61154Y-43779D01*
X61154Y-43779D02*
X61154Y-44527D01*
X61154Y-44527D02*
X61351Y-44724D01*
X61351Y-44724D02*
X61351Y-45432D01*
X61351Y-45432D02*
X61548Y-45629D01*
X61548Y-45629D02*
X61548Y-46354D01*
X61548Y-46354D02*
X62071Y-46877D01*
X56705Y-38129D02*
X56056Y-38129D01*
X56056Y-38129D02*
X55642Y-38543D01*
X55642Y-38543D02*
X55642Y-39763D01*
X55642Y-39763D02*
X55524Y-39881D01*
X55524Y-39881D02*
X55079Y-39881D01*
X55079Y-39881D02*
X55079Y-39877D01*
X55079Y-39877D02*
X55083Y-39873D01*
X56705Y-37932D02*
X55977Y-37932D01*
X55977Y-37932D02*
X55079Y-38830D01*
X55079Y-38830D02*
X55079Y-38869D01*
X55079Y-38869D02*
X55083Y-38873D01*
X56705Y-37736D02*
X55898Y-37736D01*
X55898Y-37736D02*
X55760Y-37873D01*
X55760Y-37873D02*
X55083Y-37873D01*
X56705Y-37539D02*
X55760Y-37539D01*
X55760Y-37539D02*
X55099Y-36889D01*
X55099Y-36889D02*
X55083Y-36873D01*
X58036Y-40700D02*
X57465Y-40700D01*
X57465Y-40700D02*
X57465Y-40602D01*
X57465Y-40602D02*
X57406Y-40543D01*
X57406Y-40543D02*
X57406Y-40208D01*
X57406Y-40208D02*
X57327Y-40129D01*
X57327Y-40129D02*
X57327Y-39893D01*
X57327Y-39893D02*
X57434Y-39787D01*
X57434Y-39787D02*
X57434Y-39448D01*
X57957Y-40326D02*
X57839Y-40326D01*
X57839Y-40326D02*
X57630Y-40117D01*
X57630Y-39448D02*
X57630Y-40117D01*
X57886Y-39999D02*
X57886Y-39909D01*
X57886Y-39909D02*
X57827Y-39850D01*
X57827Y-39850D02*
X57827Y-39448D01*
X58024Y-39448D02*
X58024Y-39763D01*
X58024Y-39763D02*
X58233Y-39972D01*
X58233Y-39972D02*
X58233Y-40090D01*
X57237Y-39448D02*
X57237Y-39708D01*
X57237Y-39708D02*
X57091Y-39854D01*
X57091Y-39854D02*
X56855Y-39854D01*
X56855Y-39854D02*
X56264Y-40444D01*
X56264Y-40444D02*
X56264Y-41153D01*
X56264Y-41153D02*
X56796Y-41153D01*
X56737Y-41645D02*
X56737Y-41133D01*
X56737Y-41133D02*
X56796Y-41153D01*
X55890Y-46429D02*
X55634Y-46429D01*
X55083Y-45873D02*
X55083Y-45877D01*
X55083Y-45877D02*
X55634Y-46429D01*
X58556Y-39999D02*
X58319Y-39787D01*
X58319Y-39787D02*
X58221Y-39688D01*
X58221Y-39688D02*
X58221Y-39448D01*
X58949Y-42184D02*
X58823Y-42058D01*
X58823Y-42058D02*
X58823Y-41822D01*
X55890Y-44873D02*
X56382Y-44381D01*
X56382Y-44381D02*
X57229Y-44381D01*
X57229Y-44381D02*
X57288Y-44460D01*
X57288Y-44460D02*
X57288Y-44795D01*
X57288Y-44795D02*
X57347Y-44854D01*
X55890Y-45444D02*
X55890Y-44873D01*
X55083Y-44873D02*
X55890Y-44873D01*
X57859Y-44854D02*
X58331Y-44854D01*
X59493Y-39303D02*
X59382Y-39413D01*
X59382Y-39413D02*
X59382Y-40732D01*
X59382Y-40732D02*
X59382Y-41240D01*
X59146Y-38917D02*
X59422Y-38917D01*
X59422Y-38917D02*
X59493Y-38988D01*
X59493Y-38988D02*
X59493Y-39303D01*
X58823Y-40303D02*
X58823Y-39893D01*
X58823Y-39893D02*
X58615Y-39684D01*
X58615Y-39684D02*
X58615Y-39448D01*
X58477Y-40452D02*
X58674Y-40452D01*
X58674Y-40452D02*
X58823Y-40303D01*
X57630Y-37007D02*
X57630Y-36338D01*
X57630Y-36338D02*
X58300Y-35669D01*
X58300Y-35669D02*
X61863Y-35669D01*
X61863Y-35669D02*
X62071Y-35877D01*
X59146Y-38720D02*
X59540Y-38720D01*
X59540Y-38720D02*
X59729Y-38909D01*
X59729Y-38909D02*
X59729Y-39184D01*
X59729Y-39184D02*
X59847Y-39303D01*
X59839Y-39716D02*
X59847Y-39826D01*
X59847Y-39826D02*
X59847Y-39303D01*
X56233Y-38385D02*
X56371Y-38523D01*
X56371Y-38523D02*
X56705Y-38523D01*
X56697Y-36940D02*
X56335Y-36578D01*
X56335Y-36578D02*
X56363Y-36586D01*
X56363Y-36586D02*
X56363Y-36114D01*
X57827Y-37007D02*
X57827Y-36417D01*
X57827Y-36417D02*
X58378Y-35866D01*
X58378Y-35866D02*
X61060Y-35866D01*
X61060Y-35866D02*
X62071Y-36877D01*
X58024Y-37007D02*
X58024Y-36495D01*
X58024Y-36495D02*
X58457Y-36062D01*
X61540Y-37346D02*
X61613Y-37419D01*
X61613Y-37419D02*
X62071Y-37877D01*
X58457Y-36062D02*
X60256Y-36062D01*
X60256Y-36062D02*
X61540Y-37346D01*
X58221Y-37007D02*
X58221Y-36574D01*
X58221Y-36574D02*
X58536Y-36259D01*
X61540Y-37649D02*
X61540Y-38346D01*
X61540Y-38346D02*
X62071Y-38877D01*
X58536Y-36259D02*
X60150Y-36259D01*
X60150Y-36259D02*
X61540Y-37649D01*
X57040Y-39448D02*
X57040Y-39637D01*
X57040Y-39637D02*
X56756Y-39637D01*
X56756Y-39637D02*
X56067Y-40326D01*
X56067Y-40326D02*
X56067Y-42806D01*
X56067Y-42806D02*
X56815Y-42787D01*
X59735Y-46606D02*
X59689Y-46639D01*
X57040Y-37007D02*
X57040Y-36480D01*
X57040Y-36480D02*
X57052Y-36468D01*
X61146Y-46606D02*
X61152Y-46639D01*
X59735Y-46606D02*
X60477Y-46606D01*
X60477Y-46606D02*
X60831Y-46606D01*
X60831Y-46606D02*
X61146Y-46606D01*
X60831Y-45366D02*
X60831Y-46606D01*
X59768Y-43909D02*
X59758Y-43402D01*
X57741Y-43372D02*
X57750Y-43363D01*
X57750Y-43363D02*
X57760Y-43363D01*
X58262Y-43363D02*
X58262Y-43762D01*
X58262Y-43762D02*
X58115Y-43909D01*
X58115Y-43909D02*
X57741Y-43909D01*
X60270Y-43402D02*
X60270Y-43801D01*
X60270Y-43801D02*
X60162Y-43909D01*
X60162Y-43909D02*
X59768Y-43909D01*
X59768Y-43909D02*
X59571Y-43909D01*
X59571Y-43909D02*
X59453Y-43909D01*
X59453Y-43909D02*
X59079Y-43909D01*
X57642Y-46139D02*
X56894Y-46133D01*
X56894Y-45306D02*
X56894Y-46133D01*
X56894Y-45306D02*
X59355Y-45306D01*
X59355Y-45306D02*
X59571Y-45090D01*
X59571Y-45090D02*
X59571Y-43909D01*
X57750Y-43363D02*
X57741Y-43363D01*
X57741Y-43363D02*
X57741Y-43909D01*
X57741Y-43909D02*
X57741Y-44381D01*
X59079Y-43909D02*
X59079Y-44381D01*
X59079Y-44381D02*
X57741Y-44381D01*
M02*
