G04 (created by PCBNEW (2013-jul-07)-stable) date Mon 28 Dec 2015 12:05:22 PM PST*
%MOIN*%
G04 Gerber Fmt 3.4, Leading zero omitted, Abs format*
%FSLAX34Y34*%
G01*
G70*
G90*
G04 APERTURE LIST*
%ADD10C,0.00393701*%
%ADD11C,0.004*%
%ADD12C,0.005*%
%ADD13C,0.0062*%
%ADD14C,3.93701e-08*%
G04 APERTURE END LIST*
G54D10*
G54D11*
X56756Y-37139D02*
X56756Y-36639D01*
X57280Y-37091D02*
X57256Y-37115D01*
X57185Y-37139D01*
X57137Y-37139D01*
X57066Y-37115D01*
X57018Y-37067D01*
X56995Y-37020D01*
X56971Y-36925D01*
X56971Y-36853D01*
X56995Y-36758D01*
X57018Y-36710D01*
X57066Y-36663D01*
X57137Y-36639D01*
X57185Y-36639D01*
X57256Y-36663D01*
X57280Y-36687D01*
X57756Y-37139D02*
X57471Y-37139D01*
X57614Y-37139D02*
X57614Y-36639D01*
X57566Y-36710D01*
X57518Y-36758D01*
X57471Y-36782D01*
X56943Y-40521D02*
X57181Y-40521D01*
X56895Y-40664D02*
X57062Y-40164D01*
X57229Y-40664D01*
X57395Y-40664D02*
X57395Y-40164D01*
X57515Y-40164D01*
X57586Y-40188D01*
X57634Y-40235D01*
X57657Y-40283D01*
X57681Y-40378D01*
X57681Y-40450D01*
X57657Y-40545D01*
X57634Y-40592D01*
X57586Y-40640D01*
X57515Y-40664D01*
X57395Y-40664D01*
X57848Y-40164D02*
X58181Y-40164D01*
X57967Y-40664D01*
X58634Y-40664D02*
X58348Y-40664D01*
X58491Y-40664D02*
X58491Y-40164D01*
X58443Y-40235D01*
X58395Y-40283D01*
X58348Y-40307D01*
X58800Y-40164D02*
X59134Y-40164D01*
X58919Y-40664D01*
X59276Y-40164D02*
X59586Y-40164D01*
X59419Y-40354D01*
X59491Y-40354D01*
X59538Y-40378D01*
X59562Y-40402D01*
X59586Y-40450D01*
X59586Y-40569D01*
X59562Y-40616D01*
X59538Y-40640D01*
X59491Y-40664D01*
X59348Y-40664D01*
X59300Y-40640D01*
X59276Y-40616D01*
X55812Y-43560D02*
X55646Y-43322D01*
X55526Y-43560D02*
X55526Y-43060D01*
X55717Y-43060D01*
X55765Y-43084D01*
X55788Y-43108D01*
X55812Y-43155D01*
X55812Y-43227D01*
X55788Y-43274D01*
X55765Y-43298D01*
X55717Y-43322D01*
X55526Y-43322D01*
X56288Y-43560D02*
X56003Y-43560D01*
X56146Y-43560D02*
X56146Y-43060D01*
X56098Y-43131D01*
X56050Y-43179D01*
X56003Y-43203D01*
X55276Y-42108D02*
X55300Y-42084D01*
X55348Y-42060D01*
X55467Y-42060D01*
X55515Y-42084D01*
X55538Y-42108D01*
X55562Y-42155D01*
X55562Y-42203D01*
X55538Y-42274D01*
X55253Y-42560D01*
X55562Y-42560D01*
X55753Y-42108D02*
X55776Y-42084D01*
X55824Y-42060D01*
X55943Y-42060D01*
X55991Y-42084D01*
X56015Y-42108D01*
X56038Y-42155D01*
X56038Y-42203D01*
X56015Y-42274D01*
X55729Y-42560D01*
X56038Y-42560D01*
X56348Y-42060D02*
X56396Y-42060D01*
X56443Y-42084D01*
X56467Y-42108D01*
X56491Y-42155D01*
X56515Y-42250D01*
X56515Y-42369D01*
X56491Y-42465D01*
X56467Y-42512D01*
X56443Y-42536D01*
X56396Y-42560D01*
X56348Y-42560D01*
X56300Y-42536D01*
X56276Y-42512D01*
X56253Y-42465D01*
X56229Y-42369D01*
X56229Y-42250D01*
X56253Y-42155D01*
X56276Y-42108D01*
X56300Y-42084D01*
X56348Y-42060D01*
X56517Y-42891D02*
X56517Y-43129D01*
X56017Y-43129D01*
X56255Y-42724D02*
X56255Y-42558D01*
X56517Y-42486D02*
X56517Y-42724D01*
X56017Y-42724D01*
X56017Y-42486D01*
X56517Y-42272D02*
X56017Y-42272D01*
X56017Y-42153D01*
X56041Y-42082D01*
X56088Y-42034D01*
X56136Y-42010D01*
X56231Y-41986D01*
X56303Y-41986D01*
X56398Y-42010D01*
X56445Y-42034D01*
X56493Y-42082D01*
X56517Y-42153D01*
X56517Y-42272D01*
X56517Y-41510D02*
X56517Y-41796D01*
X56517Y-41653D02*
X56017Y-41653D01*
X56088Y-41701D01*
X56136Y-41748D01*
X56160Y-41796D01*
X57469Y-42832D02*
X57493Y-42808D01*
X57517Y-42832D01*
X57493Y-42855D01*
X57469Y-42832D01*
X57517Y-42832D01*
X55905Y-39207D02*
X55881Y-39231D01*
X55810Y-39255D01*
X55762Y-39255D01*
X55691Y-39231D01*
X55643Y-39183D01*
X55619Y-39136D01*
X55596Y-39041D01*
X55596Y-38969D01*
X55619Y-38874D01*
X55643Y-38826D01*
X55691Y-38779D01*
X55762Y-38755D01*
X55810Y-38755D01*
X55881Y-38779D01*
X55905Y-38803D01*
X56381Y-39255D02*
X56096Y-39255D01*
X56239Y-39255D02*
X56239Y-38755D01*
X56191Y-38826D01*
X56143Y-38874D01*
X56096Y-38898D01*
X56167Y-38255D02*
X56215Y-38255D01*
X56262Y-38279D01*
X56286Y-38303D01*
X56310Y-38350D01*
X56334Y-38445D01*
X56334Y-38564D01*
X56310Y-38660D01*
X56286Y-38707D01*
X56262Y-38731D01*
X56215Y-38755D01*
X56167Y-38755D01*
X56119Y-38731D01*
X56096Y-38707D01*
X56072Y-38660D01*
X56048Y-38564D01*
X56048Y-38445D01*
X56072Y-38350D01*
X56096Y-38303D01*
X56119Y-38279D01*
X56167Y-38255D01*
X56548Y-38707D02*
X56572Y-38731D01*
X56548Y-38755D01*
X56524Y-38731D01*
X56548Y-38707D01*
X56548Y-38755D01*
X57048Y-38755D02*
X56762Y-38755D01*
X56905Y-38755D02*
X56905Y-38255D01*
X56858Y-38326D01*
X56810Y-38374D01*
X56762Y-38398D01*
X57477Y-38422D02*
X57477Y-38755D01*
X57262Y-38422D02*
X57262Y-38683D01*
X57286Y-38731D01*
X57334Y-38755D01*
X57405Y-38755D01*
X57453Y-38731D01*
X57477Y-38707D01*
X57881Y-38493D02*
X57715Y-38493D01*
X57715Y-38755D02*
X57715Y-38255D01*
X57953Y-38255D01*
X58393Y-41160D02*
X58227Y-40922D01*
X58107Y-41160D02*
X58107Y-40660D01*
X58298Y-40660D01*
X58346Y-40684D01*
X58369Y-40708D01*
X58393Y-40755D01*
X58393Y-40827D01*
X58369Y-40874D01*
X58346Y-40898D01*
X58298Y-40922D01*
X58107Y-40922D01*
X58584Y-40708D02*
X58607Y-40684D01*
X58655Y-40660D01*
X58774Y-40660D01*
X58822Y-40684D01*
X58846Y-40708D01*
X58869Y-40755D01*
X58869Y-40803D01*
X58846Y-40874D01*
X58560Y-41160D01*
X58869Y-41160D01*
X57179Y-41160D02*
X56893Y-41160D01*
X57036Y-41160D02*
X57036Y-40660D01*
X56988Y-40731D01*
X56941Y-40779D01*
X56893Y-40803D01*
X57488Y-40660D02*
X57536Y-40660D01*
X57584Y-40684D01*
X57607Y-40708D01*
X57631Y-40755D01*
X57655Y-40850D01*
X57655Y-40969D01*
X57631Y-41065D01*
X57607Y-41112D01*
X57584Y-41136D01*
X57536Y-41160D01*
X57488Y-41160D01*
X57441Y-41136D01*
X57417Y-41112D01*
X57393Y-41065D01*
X57369Y-40969D01*
X57369Y-40850D01*
X57393Y-40755D01*
X57417Y-40708D01*
X57441Y-40684D01*
X57488Y-40660D01*
X57869Y-41160D02*
X57869Y-40660D01*
X57917Y-40969D02*
X58060Y-41160D01*
X58060Y-40827D02*
X57869Y-41017D01*
X59755Y-40424D02*
X59589Y-40186D01*
X59469Y-40424D02*
X59469Y-39924D01*
X59660Y-39924D01*
X59708Y-39948D01*
X59731Y-39972D01*
X59755Y-40019D01*
X59755Y-40091D01*
X59731Y-40138D01*
X59708Y-40162D01*
X59660Y-40186D01*
X59469Y-40186D01*
X59922Y-39924D02*
X60231Y-39924D01*
X60065Y-40114D01*
X60136Y-40114D01*
X60184Y-40138D01*
X60208Y-40162D01*
X60231Y-40210D01*
X60231Y-40329D01*
X60208Y-40376D01*
X60184Y-40400D01*
X60136Y-40424D01*
X59993Y-40424D01*
X59946Y-40400D01*
X59922Y-40376D01*
X58541Y-40424D02*
X58255Y-40424D01*
X58398Y-40424D02*
X58398Y-39924D01*
X58350Y-39995D01*
X58303Y-40043D01*
X58255Y-40067D01*
X58850Y-39924D02*
X58898Y-39924D01*
X58946Y-39948D01*
X58969Y-39972D01*
X58993Y-40019D01*
X59017Y-40114D01*
X59017Y-40233D01*
X58993Y-40329D01*
X58969Y-40376D01*
X58946Y-40400D01*
X58898Y-40424D01*
X58850Y-40424D01*
X58803Y-40400D01*
X58779Y-40376D01*
X58755Y-40329D01*
X58731Y-40233D01*
X58731Y-40114D01*
X58755Y-40019D01*
X58779Y-39972D01*
X58803Y-39948D01*
X58850Y-39924D01*
X59231Y-40424D02*
X59231Y-39924D01*
X59279Y-40233D02*
X59422Y-40424D01*
X59422Y-40091D02*
X59231Y-40281D01*
X56273Y-36268D02*
X56249Y-36292D01*
X56178Y-36316D01*
X56130Y-36316D01*
X56059Y-36292D01*
X56011Y-36244D01*
X55987Y-36197D01*
X55964Y-36102D01*
X55964Y-36030D01*
X55987Y-35935D01*
X56011Y-35887D01*
X56059Y-35840D01*
X56130Y-35816D01*
X56178Y-35816D01*
X56249Y-35840D01*
X56273Y-35864D01*
X56464Y-35864D02*
X56487Y-35840D01*
X56535Y-35816D01*
X56654Y-35816D01*
X56702Y-35840D01*
X56726Y-35864D01*
X56749Y-35911D01*
X56749Y-35959D01*
X56726Y-36030D01*
X56440Y-36316D01*
X56749Y-36316D01*
X56035Y-36816D02*
X56083Y-36816D01*
X56130Y-36840D01*
X56154Y-36864D01*
X56178Y-36911D01*
X56202Y-37006D01*
X56202Y-37125D01*
X56178Y-37221D01*
X56154Y-37268D01*
X56130Y-37292D01*
X56083Y-37316D01*
X56035Y-37316D01*
X55987Y-37292D01*
X55964Y-37268D01*
X55940Y-37221D01*
X55916Y-37125D01*
X55916Y-37006D01*
X55940Y-36911D01*
X55964Y-36864D01*
X55987Y-36840D01*
X56035Y-36816D01*
X56416Y-37268D02*
X56440Y-37292D01*
X56416Y-37316D01*
X56392Y-37292D01*
X56416Y-37268D01*
X56416Y-37316D01*
X56916Y-37316D02*
X56630Y-37316D01*
X56773Y-37316D02*
X56773Y-36816D01*
X56726Y-36887D01*
X56678Y-36935D01*
X56630Y-36959D01*
X57345Y-36983D02*
X57345Y-37316D01*
X57130Y-36983D02*
X57130Y-37244D01*
X57154Y-37292D01*
X57202Y-37316D01*
X57273Y-37316D01*
X57321Y-37292D01*
X57345Y-37268D01*
X57749Y-37054D02*
X57583Y-37054D01*
X57583Y-37316D02*
X57583Y-36816D01*
X57821Y-36816D01*
X58989Y-44063D02*
X58965Y-44087D01*
X58894Y-44111D01*
X58846Y-44111D01*
X58775Y-44087D01*
X58727Y-44039D01*
X58703Y-43992D01*
X58680Y-43897D01*
X58680Y-43825D01*
X58703Y-43730D01*
X58727Y-43682D01*
X58775Y-43635D01*
X58846Y-43611D01*
X58894Y-43611D01*
X58965Y-43635D01*
X58989Y-43659D01*
X59156Y-43611D02*
X59465Y-43611D01*
X59299Y-43801D01*
X59370Y-43801D01*
X59418Y-43825D01*
X59442Y-43849D01*
X59465Y-43897D01*
X59465Y-44016D01*
X59442Y-44063D01*
X59418Y-44087D01*
X59370Y-44111D01*
X59227Y-44111D01*
X59180Y-44087D01*
X59156Y-44063D01*
X58870Y-44778D02*
X58870Y-45111D01*
X58751Y-44587D02*
X58632Y-44944D01*
X58942Y-44944D01*
X59132Y-45063D02*
X59156Y-45087D01*
X59132Y-45111D01*
X59108Y-45087D01*
X59132Y-45063D01*
X59132Y-45111D01*
X59323Y-44611D02*
X59656Y-44611D01*
X59442Y-45111D01*
X60061Y-44778D02*
X60061Y-45111D01*
X59846Y-44778D02*
X59846Y-45039D01*
X59870Y-45087D01*
X59918Y-45111D01*
X59989Y-45111D01*
X60037Y-45087D01*
X60061Y-45063D01*
X60465Y-44849D02*
X60299Y-44849D01*
X60299Y-45111D02*
X60299Y-44611D01*
X60537Y-44611D01*
X56273Y-36740D02*
X56249Y-36764D01*
X56178Y-36788D01*
X56130Y-36788D01*
X56059Y-36764D01*
X56011Y-36716D01*
X55987Y-36669D01*
X55964Y-36574D01*
X55964Y-36502D01*
X55987Y-36407D01*
X56011Y-36359D01*
X56059Y-36312D01*
X56130Y-36288D01*
X56178Y-36288D01*
X56249Y-36312D01*
X56273Y-36336D01*
X56726Y-36288D02*
X56487Y-36288D01*
X56464Y-36526D01*
X56487Y-36502D01*
X56535Y-36478D01*
X56654Y-36478D01*
X56702Y-36502D01*
X56726Y-36526D01*
X56749Y-36574D01*
X56749Y-36693D01*
X56726Y-36740D01*
X56702Y-36764D01*
X56654Y-36788D01*
X56535Y-36788D01*
X56487Y-36764D01*
X56464Y-36740D01*
X56059Y-37788D02*
X55773Y-37788D01*
X55916Y-37788D02*
X55916Y-37288D01*
X55868Y-37359D01*
X55821Y-37407D01*
X55773Y-37431D01*
X56487Y-37455D02*
X56487Y-37788D01*
X56273Y-37455D02*
X56273Y-37716D01*
X56297Y-37764D01*
X56345Y-37788D01*
X56416Y-37788D01*
X56464Y-37764D01*
X56487Y-37740D01*
X56892Y-37526D02*
X56726Y-37526D01*
X56726Y-37788D02*
X56726Y-37288D01*
X56964Y-37288D01*
X59804Y-40886D02*
X59780Y-40910D01*
X59709Y-40934D01*
X59661Y-40934D01*
X59590Y-40910D01*
X59542Y-40862D01*
X59518Y-40815D01*
X59495Y-40720D01*
X59495Y-40648D01*
X59518Y-40553D01*
X59542Y-40505D01*
X59590Y-40458D01*
X59661Y-40434D01*
X59709Y-40434D01*
X59780Y-40458D01*
X59804Y-40482D01*
X60233Y-40434D02*
X60138Y-40434D01*
X60090Y-40458D01*
X60066Y-40482D01*
X60018Y-40553D01*
X59995Y-40648D01*
X59995Y-40839D01*
X60018Y-40886D01*
X60042Y-40910D01*
X60090Y-40934D01*
X60185Y-40934D01*
X60233Y-40910D01*
X60257Y-40886D01*
X60280Y-40839D01*
X60280Y-40720D01*
X60257Y-40672D01*
X60233Y-40648D01*
X60185Y-40624D01*
X60090Y-40624D01*
X60042Y-40648D01*
X60018Y-40672D01*
X59995Y-40720D01*
X59566Y-41434D02*
X59614Y-41434D01*
X59661Y-41458D01*
X59685Y-41482D01*
X59709Y-41529D01*
X59733Y-41624D01*
X59733Y-41743D01*
X59709Y-41839D01*
X59685Y-41886D01*
X59661Y-41910D01*
X59614Y-41934D01*
X59566Y-41934D01*
X59518Y-41910D01*
X59495Y-41886D01*
X59471Y-41839D01*
X59447Y-41743D01*
X59447Y-41624D01*
X59471Y-41529D01*
X59495Y-41482D01*
X59518Y-41458D01*
X59566Y-41434D01*
X59947Y-41886D02*
X59971Y-41910D01*
X59947Y-41934D01*
X59923Y-41910D01*
X59947Y-41886D01*
X59947Y-41934D01*
X60447Y-41934D02*
X60161Y-41934D01*
X60304Y-41934D02*
X60304Y-41434D01*
X60257Y-41505D01*
X60209Y-41553D01*
X60161Y-41577D01*
X60876Y-41601D02*
X60876Y-41934D01*
X60661Y-41601D02*
X60661Y-41862D01*
X60685Y-41910D01*
X60733Y-41934D01*
X60804Y-41934D01*
X60852Y-41910D01*
X60876Y-41886D01*
X61280Y-41672D02*
X61114Y-41672D01*
X61114Y-41934D02*
X61114Y-41434D01*
X61352Y-41434D01*
X59804Y-41394D02*
X59780Y-41418D01*
X59709Y-41442D01*
X59661Y-41442D01*
X59590Y-41418D01*
X59542Y-41370D01*
X59518Y-41323D01*
X59495Y-41228D01*
X59495Y-41156D01*
X59518Y-41061D01*
X59542Y-41013D01*
X59590Y-40966D01*
X59661Y-40942D01*
X59709Y-40942D01*
X59780Y-40966D01*
X59804Y-40990D01*
X59971Y-40942D02*
X60304Y-40942D01*
X60090Y-41442D01*
X59590Y-42442D02*
X59304Y-42442D01*
X59447Y-42442D02*
X59447Y-41942D01*
X59399Y-42013D01*
X59352Y-42061D01*
X59304Y-42085D01*
X60018Y-42109D02*
X60018Y-42442D01*
X59804Y-42109D02*
X59804Y-42370D01*
X59828Y-42418D01*
X59876Y-42442D01*
X59947Y-42442D01*
X59995Y-42418D01*
X60018Y-42394D01*
X60423Y-42180D02*
X60257Y-42180D01*
X60257Y-42442D02*
X60257Y-41942D01*
X60495Y-41942D01*
X58865Y-41427D02*
X58841Y-41451D01*
X58770Y-41475D01*
X58722Y-41475D01*
X58651Y-41451D01*
X58603Y-41403D01*
X58579Y-41356D01*
X58556Y-41261D01*
X58556Y-41189D01*
X58579Y-41094D01*
X58603Y-41046D01*
X58651Y-40999D01*
X58722Y-40975D01*
X58770Y-40975D01*
X58841Y-40999D01*
X58865Y-41023D01*
X59151Y-41189D02*
X59103Y-41165D01*
X59079Y-41142D01*
X59056Y-41094D01*
X59056Y-41070D01*
X59079Y-41023D01*
X59103Y-40999D01*
X59151Y-40975D01*
X59246Y-40975D01*
X59294Y-40999D01*
X59318Y-41023D01*
X59341Y-41070D01*
X59341Y-41094D01*
X59318Y-41142D01*
X59294Y-41165D01*
X59246Y-41189D01*
X59151Y-41189D01*
X59103Y-41213D01*
X59079Y-41237D01*
X59056Y-41284D01*
X59056Y-41380D01*
X59079Y-41427D01*
X59103Y-41451D01*
X59151Y-41475D01*
X59246Y-41475D01*
X59294Y-41451D01*
X59318Y-41427D01*
X59341Y-41380D01*
X59341Y-41284D01*
X59318Y-41237D01*
X59294Y-41213D01*
X59246Y-41189D01*
X57127Y-41475D02*
X57175Y-41475D01*
X57222Y-41499D01*
X57246Y-41523D01*
X57270Y-41570D01*
X57294Y-41665D01*
X57294Y-41784D01*
X57270Y-41880D01*
X57246Y-41927D01*
X57222Y-41951D01*
X57175Y-41975D01*
X57127Y-41975D01*
X57079Y-41951D01*
X57056Y-41927D01*
X57032Y-41880D01*
X57008Y-41784D01*
X57008Y-41665D01*
X57032Y-41570D01*
X57056Y-41523D01*
X57079Y-41499D01*
X57127Y-41475D01*
X57508Y-41927D02*
X57532Y-41951D01*
X57508Y-41975D01*
X57484Y-41951D01*
X57508Y-41927D01*
X57508Y-41975D01*
X58008Y-41975D02*
X57722Y-41975D01*
X57865Y-41975D02*
X57865Y-41475D01*
X57818Y-41546D01*
X57770Y-41594D01*
X57722Y-41618D01*
X58437Y-41642D02*
X58437Y-41975D01*
X58222Y-41642D02*
X58222Y-41903D01*
X58246Y-41951D01*
X58294Y-41975D01*
X58365Y-41975D01*
X58413Y-41951D01*
X58437Y-41927D01*
X58841Y-41713D02*
X58675Y-41713D01*
X58675Y-41975D02*
X58675Y-41475D01*
X58913Y-41475D01*
X58865Y-42892D02*
X58699Y-42654D01*
X58579Y-42892D02*
X58579Y-42392D01*
X58770Y-42392D01*
X58818Y-42416D01*
X58841Y-42440D01*
X58865Y-42487D01*
X58865Y-42559D01*
X58841Y-42606D01*
X58818Y-42630D01*
X58770Y-42654D01*
X58579Y-42654D01*
X59294Y-42559D02*
X59294Y-42892D01*
X59175Y-42368D02*
X59056Y-42725D01*
X59365Y-42725D01*
X57651Y-42892D02*
X57365Y-42892D01*
X57508Y-42892D02*
X57508Y-42392D01*
X57460Y-42463D01*
X57413Y-42511D01*
X57365Y-42535D01*
X57960Y-42392D02*
X58008Y-42392D01*
X58056Y-42416D01*
X58079Y-42440D01*
X58103Y-42487D01*
X58127Y-42582D01*
X58127Y-42701D01*
X58103Y-42797D01*
X58079Y-42844D01*
X58056Y-42868D01*
X58008Y-42892D01*
X57960Y-42892D01*
X57913Y-42868D01*
X57889Y-42844D01*
X57865Y-42797D01*
X57841Y-42701D01*
X57841Y-42582D01*
X57865Y-42487D01*
X57889Y-42440D01*
X57913Y-42416D01*
X57960Y-42392D01*
X58341Y-42892D02*
X58341Y-42392D01*
X58389Y-42701D02*
X58532Y-42892D01*
X58532Y-42559D02*
X58341Y-42749D01*
G54D12*
X57030Y-43019D02*
X56530Y-43019D01*
X56982Y-42495D02*
X57006Y-42519D01*
X57030Y-42590D01*
X57030Y-42638D01*
X57006Y-42709D01*
X56958Y-42757D01*
X56911Y-42781D01*
X56816Y-42804D01*
X56744Y-42804D01*
X56649Y-42781D01*
X56601Y-42757D01*
X56554Y-42709D01*
X56530Y-42638D01*
X56530Y-42590D01*
X56554Y-42519D01*
X56578Y-42495D01*
X56578Y-42304D02*
X56554Y-42281D01*
X56530Y-42233D01*
X56530Y-42114D01*
X56554Y-42066D01*
X56578Y-42042D01*
X56625Y-42019D01*
X56673Y-42019D01*
X56744Y-42042D01*
X57030Y-42328D01*
X57030Y-42019D01*
X58987Y-43102D02*
X58987Y-42864D01*
X59130Y-43150D02*
X58630Y-42983D01*
X59130Y-42816D01*
X59130Y-42650D02*
X58630Y-42650D01*
X58630Y-42531D01*
X58654Y-42459D01*
X58701Y-42411D01*
X58749Y-42388D01*
X58844Y-42364D01*
X58916Y-42364D01*
X59011Y-42388D01*
X59058Y-42411D01*
X59106Y-42459D01*
X59130Y-42531D01*
X59130Y-42650D01*
X59130Y-42150D02*
X58630Y-42150D01*
X58630Y-41959D01*
X58654Y-41911D01*
X58678Y-41888D01*
X58725Y-41864D01*
X58797Y-41864D01*
X58844Y-41888D01*
X58868Y-41911D01*
X58892Y-41959D01*
X58892Y-42150D01*
X59130Y-41388D02*
X59130Y-41673D01*
X59130Y-41531D02*
X58630Y-41531D01*
X58701Y-41578D01*
X58749Y-41626D01*
X58773Y-41673D01*
X58630Y-41221D02*
X58630Y-40888D01*
X59130Y-41102D01*
X58678Y-40721D02*
X58654Y-40697D01*
X58630Y-40650D01*
X58630Y-40531D01*
X58654Y-40483D01*
X58678Y-40459D01*
X58725Y-40435D01*
X58773Y-40435D01*
X58844Y-40459D01*
X59130Y-40745D01*
X59130Y-40435D01*
X58630Y-40126D02*
X58630Y-40078D01*
X58654Y-40031D01*
X58678Y-40007D01*
X58725Y-39983D01*
X58820Y-39959D01*
X58939Y-39959D01*
X59035Y-39983D01*
X59082Y-40007D01*
X59106Y-40031D01*
X59130Y-40078D01*
X59130Y-40126D01*
X59106Y-40173D01*
X59082Y-40197D01*
X59035Y-40221D01*
X58939Y-40245D01*
X58820Y-40245D01*
X58725Y-40221D01*
X58678Y-40197D01*
X58654Y-40173D01*
X58630Y-40126D01*
G54D11*
X57651Y-44063D02*
X57627Y-44087D01*
X57556Y-44111D01*
X57508Y-44111D01*
X57437Y-44087D01*
X57389Y-44039D01*
X57365Y-43992D01*
X57342Y-43897D01*
X57342Y-43825D01*
X57365Y-43730D01*
X57389Y-43682D01*
X57437Y-43635D01*
X57508Y-43611D01*
X57556Y-43611D01*
X57627Y-43635D01*
X57651Y-43659D01*
X58080Y-43778D02*
X58080Y-44111D01*
X57961Y-43587D02*
X57842Y-43944D01*
X58151Y-43944D01*
X57532Y-44778D02*
X57532Y-45111D01*
X57413Y-44587D02*
X57294Y-44944D01*
X57604Y-44944D01*
X57794Y-45063D02*
X57818Y-45087D01*
X57794Y-45111D01*
X57770Y-45087D01*
X57794Y-45063D01*
X57794Y-45111D01*
X57985Y-44611D02*
X58318Y-44611D01*
X58104Y-45111D01*
X58723Y-44778D02*
X58723Y-45111D01*
X58508Y-44778D02*
X58508Y-45039D01*
X58532Y-45087D01*
X58580Y-45111D01*
X58651Y-45111D01*
X58699Y-45087D01*
X58723Y-45063D01*
X59127Y-44849D02*
X58961Y-44849D01*
X58961Y-45111D02*
X58961Y-44611D01*
X59199Y-44611D01*
G54D12*
X59038Y-43058D02*
X58538Y-43058D01*
X58990Y-42534D02*
X59014Y-42558D01*
X59038Y-42629D01*
X59038Y-42677D01*
X59014Y-42748D01*
X58966Y-42796D01*
X58919Y-42820D01*
X58824Y-42843D01*
X58752Y-42843D01*
X58657Y-42820D01*
X58609Y-42796D01*
X58562Y-42748D01*
X58538Y-42677D01*
X58538Y-42629D01*
X58562Y-42558D01*
X58586Y-42534D01*
X58538Y-42367D02*
X58538Y-42058D01*
X58728Y-42224D01*
X58728Y-42153D01*
X58752Y-42105D01*
X58776Y-42081D01*
X58824Y-42058D01*
X58943Y-42058D01*
X58990Y-42081D01*
X59014Y-42105D01*
X59038Y-42153D01*
X59038Y-42296D01*
X59014Y-42343D01*
X58990Y-42367D01*
X60995Y-43177D02*
X60995Y-42939D01*
X61138Y-43224D02*
X60638Y-43058D01*
X61138Y-42891D01*
X61138Y-42724D02*
X60638Y-42724D01*
X60638Y-42605D01*
X60662Y-42534D01*
X60709Y-42486D01*
X60757Y-42462D01*
X60852Y-42439D01*
X60924Y-42439D01*
X61019Y-42462D01*
X61066Y-42486D01*
X61114Y-42534D01*
X61138Y-42605D01*
X61138Y-42724D01*
X61138Y-42224D02*
X60638Y-42224D01*
X60638Y-42034D01*
X60662Y-41986D01*
X60686Y-41962D01*
X60733Y-41939D01*
X60805Y-41939D01*
X60852Y-41962D01*
X60876Y-41986D01*
X60900Y-42034D01*
X60900Y-42224D01*
X61138Y-41462D02*
X61138Y-41748D01*
X61138Y-41605D02*
X60638Y-41605D01*
X60709Y-41653D01*
X60757Y-41700D01*
X60781Y-41748D01*
X60638Y-41296D02*
X60638Y-40962D01*
X61138Y-41177D01*
X60686Y-40796D02*
X60662Y-40772D01*
X60638Y-40724D01*
X60638Y-40605D01*
X60662Y-40558D01*
X60686Y-40534D01*
X60733Y-40510D01*
X60781Y-40510D01*
X60852Y-40534D01*
X61138Y-40820D01*
X61138Y-40510D01*
X60638Y-40200D02*
X60638Y-40153D01*
X60662Y-40105D01*
X60686Y-40081D01*
X60733Y-40058D01*
X60828Y-40034D01*
X60947Y-40034D01*
X61043Y-40058D01*
X61090Y-40081D01*
X61114Y-40105D01*
X61138Y-40153D01*
X61138Y-40200D01*
X61114Y-40248D01*
X61090Y-40272D01*
X61043Y-40296D01*
X60947Y-40320D01*
X60828Y-40320D01*
X60733Y-40296D01*
X60686Y-40272D01*
X60662Y-40248D01*
X60638Y-40200D01*
X60995Y-39843D02*
X60995Y-39605D01*
X61138Y-39891D02*
X60638Y-39724D01*
X61138Y-39558D01*
X61138Y-39105D02*
X60900Y-39272D01*
X61138Y-39391D02*
X60638Y-39391D01*
X60638Y-39200D01*
X60662Y-39153D01*
X60686Y-39129D01*
X60733Y-39105D01*
X60805Y-39105D01*
X60852Y-39129D01*
X60876Y-39153D01*
X60900Y-39200D01*
X60900Y-39391D01*
X61138Y-38891D02*
X60638Y-38891D01*
X60995Y-38724D01*
X60638Y-38558D01*
X61138Y-38558D01*
X60638Y-38367D02*
X60638Y-38034D01*
X61138Y-38367D01*
X61138Y-38034D01*
X60947Y-37843D02*
X60947Y-37462D01*
X60638Y-36986D02*
X60638Y-37224D01*
X60876Y-37248D01*
X60852Y-37224D01*
X60828Y-37177D01*
X60828Y-37058D01*
X60852Y-37010D01*
X60876Y-36986D01*
X60924Y-36962D01*
X61043Y-36962D01*
X61090Y-36986D01*
X61114Y-37010D01*
X61138Y-37058D01*
X61138Y-37177D01*
X61114Y-37224D01*
X61090Y-37248D01*
G54D11*
X56653Y-42305D02*
X56629Y-42329D01*
X56558Y-42353D01*
X56510Y-42353D01*
X56439Y-42329D01*
X56391Y-42281D01*
X56367Y-42234D01*
X56344Y-42139D01*
X56344Y-42067D01*
X56367Y-41972D01*
X56391Y-41924D01*
X56439Y-41877D01*
X56510Y-41853D01*
X56558Y-41853D01*
X56629Y-41877D01*
X56653Y-41901D01*
X56891Y-42353D02*
X56987Y-42353D01*
X57034Y-42329D01*
X57058Y-42305D01*
X57106Y-42234D01*
X57129Y-42139D01*
X57129Y-41948D01*
X57106Y-41901D01*
X57082Y-41877D01*
X57034Y-41853D01*
X56939Y-41853D01*
X56891Y-41877D01*
X56867Y-41901D01*
X56844Y-41948D01*
X56844Y-42067D01*
X56867Y-42115D01*
X56891Y-42139D01*
X56939Y-42162D01*
X57034Y-42162D01*
X57082Y-42139D01*
X57106Y-42115D01*
X57129Y-42067D01*
X55201Y-42853D02*
X54915Y-42853D01*
X55058Y-42853D02*
X55058Y-42353D01*
X55010Y-42424D01*
X54963Y-42472D01*
X54915Y-42496D01*
X55510Y-42353D02*
X55558Y-42353D01*
X55606Y-42377D01*
X55629Y-42401D01*
X55653Y-42448D01*
X55677Y-42543D01*
X55677Y-42662D01*
X55653Y-42758D01*
X55629Y-42805D01*
X55606Y-42829D01*
X55558Y-42853D01*
X55510Y-42853D01*
X55463Y-42829D01*
X55439Y-42805D01*
X55415Y-42758D01*
X55391Y-42662D01*
X55391Y-42543D01*
X55415Y-42448D01*
X55439Y-42401D01*
X55463Y-42377D01*
X55510Y-42353D01*
X55891Y-42520D02*
X55891Y-43020D01*
X55891Y-42543D02*
X55939Y-42520D01*
X56034Y-42520D01*
X56082Y-42543D01*
X56106Y-42567D01*
X56129Y-42615D01*
X56129Y-42758D01*
X56106Y-42805D01*
X56082Y-42829D01*
X56034Y-42853D01*
X55939Y-42853D01*
X55891Y-42829D01*
X56510Y-42591D02*
X56344Y-42591D01*
X56344Y-42853D02*
X56344Y-42353D01*
X56582Y-42353D01*
X57714Y-41360D02*
X57690Y-41384D01*
X57619Y-41408D01*
X57571Y-41408D01*
X57500Y-41384D01*
X57452Y-41336D01*
X57428Y-41289D01*
X57405Y-41194D01*
X57405Y-41122D01*
X57428Y-41027D01*
X57452Y-40979D01*
X57500Y-40932D01*
X57571Y-40908D01*
X57619Y-40908D01*
X57690Y-40932D01*
X57714Y-40956D01*
X58190Y-41408D02*
X57905Y-41408D01*
X58047Y-41408D02*
X58047Y-40908D01*
X58000Y-40979D01*
X57952Y-41027D01*
X57905Y-41051D01*
X58500Y-40908D02*
X58547Y-40908D01*
X58595Y-40932D01*
X58619Y-40956D01*
X58643Y-41003D01*
X58666Y-41098D01*
X58666Y-41217D01*
X58643Y-41313D01*
X58619Y-41360D01*
X58595Y-41384D01*
X58547Y-41408D01*
X58500Y-41408D01*
X58452Y-41384D01*
X58428Y-41360D01*
X58405Y-41313D01*
X58381Y-41217D01*
X58381Y-41098D01*
X58405Y-41003D01*
X58428Y-40956D01*
X58452Y-40932D01*
X58500Y-40908D01*
X56500Y-41908D02*
X56214Y-41908D01*
X56357Y-41908D02*
X56357Y-41408D01*
X56309Y-41479D01*
X56262Y-41527D01*
X56214Y-41551D01*
X56809Y-41408D02*
X56857Y-41408D01*
X56905Y-41432D01*
X56928Y-41456D01*
X56952Y-41503D01*
X56976Y-41598D01*
X56976Y-41717D01*
X56952Y-41813D01*
X56928Y-41860D01*
X56905Y-41884D01*
X56857Y-41908D01*
X56809Y-41908D01*
X56762Y-41884D01*
X56738Y-41860D01*
X56714Y-41813D01*
X56690Y-41717D01*
X56690Y-41598D01*
X56714Y-41503D01*
X56738Y-41456D01*
X56762Y-41432D01*
X56809Y-41408D01*
X57190Y-41575D02*
X57190Y-42075D01*
X57190Y-41598D02*
X57238Y-41575D01*
X57333Y-41575D01*
X57381Y-41598D01*
X57405Y-41622D01*
X57428Y-41670D01*
X57428Y-41813D01*
X57405Y-41860D01*
X57381Y-41884D01*
X57333Y-41908D01*
X57238Y-41908D01*
X57190Y-41884D01*
X57809Y-41646D02*
X57643Y-41646D01*
X57643Y-41908D02*
X57643Y-41408D01*
X57881Y-41408D01*
X57014Y-40799D02*
X56966Y-40775D01*
X56919Y-40727D01*
X56847Y-40656D01*
X56800Y-40632D01*
X56752Y-40632D01*
X56776Y-40751D02*
X56728Y-40727D01*
X56681Y-40679D01*
X56657Y-40584D01*
X56657Y-40418D01*
X56681Y-40322D01*
X56728Y-40275D01*
X56776Y-40251D01*
X56871Y-40251D01*
X56919Y-40275D01*
X56966Y-40322D01*
X56990Y-40418D01*
X56990Y-40584D01*
X56966Y-40679D01*
X56919Y-40727D01*
X56871Y-40751D01*
X56776Y-40751D01*
X57466Y-40751D02*
X57181Y-40751D01*
X57323Y-40751D02*
X57323Y-40251D01*
X57276Y-40322D01*
X57228Y-40370D01*
X57181Y-40394D01*
X56869Y-42149D02*
X56702Y-42149D01*
X56702Y-42411D02*
X56702Y-41911D01*
X56940Y-41911D01*
X57107Y-42268D02*
X57345Y-42268D01*
X57060Y-42411D02*
X57226Y-41911D01*
X57393Y-42411D01*
X57560Y-42220D02*
X57940Y-42220D01*
X58155Y-41959D02*
X58179Y-41935D01*
X58226Y-41911D01*
X58345Y-41911D01*
X58393Y-41935D01*
X58417Y-41959D01*
X58440Y-42006D01*
X58440Y-42054D01*
X58417Y-42125D01*
X58131Y-42411D01*
X58440Y-42411D01*
X58750Y-41911D02*
X58798Y-41911D01*
X58845Y-41935D01*
X58869Y-41959D01*
X58893Y-42006D01*
X58917Y-42101D01*
X58917Y-42220D01*
X58893Y-42316D01*
X58869Y-42363D01*
X58845Y-42387D01*
X58798Y-42411D01*
X58750Y-42411D01*
X58702Y-42387D01*
X58679Y-42363D01*
X58655Y-42316D01*
X58631Y-42220D01*
X58631Y-42101D01*
X58655Y-42006D01*
X58679Y-41959D01*
X58702Y-41935D01*
X58750Y-41911D01*
X59131Y-42411D02*
X59131Y-41911D01*
X59131Y-42149D02*
X59417Y-42149D01*
X59417Y-42411D02*
X59417Y-41911D01*
G54D13*
X58861Y-45325D02*
X58468Y-45325D01*
X58823Y-44913D02*
X58842Y-44932D01*
X58861Y-44988D01*
X58861Y-45026D01*
X58842Y-45082D01*
X58804Y-45119D01*
X58767Y-45138D01*
X58692Y-45157D01*
X58636Y-45157D01*
X58561Y-45138D01*
X58524Y-45119D01*
X58486Y-45082D01*
X58468Y-45026D01*
X58468Y-44988D01*
X58486Y-44932D01*
X58505Y-44913D01*
X58599Y-44577D02*
X58861Y-44577D01*
X58449Y-44670D02*
X58730Y-44764D01*
X58730Y-44520D01*
X59534Y-49383D02*
X59534Y-49195D01*
X59647Y-49420D02*
X59254Y-49289D01*
X59647Y-49158D01*
X59647Y-49027D02*
X59254Y-49027D01*
X59254Y-48933D01*
X59272Y-48877D01*
X59310Y-48840D01*
X59347Y-48821D01*
X59422Y-48802D01*
X59478Y-48802D01*
X59553Y-48821D01*
X59590Y-48840D01*
X59628Y-48877D01*
X59647Y-48933D01*
X59647Y-49027D01*
X59647Y-48409D02*
X59459Y-48540D01*
X59647Y-48634D02*
X59254Y-48634D01*
X59254Y-48484D01*
X59272Y-48447D01*
X59291Y-48428D01*
X59328Y-48409D01*
X59385Y-48409D01*
X59422Y-48428D01*
X59441Y-48447D01*
X59459Y-48484D01*
X59459Y-48634D01*
X59385Y-48073D02*
X59647Y-48073D01*
X59235Y-48166D02*
X59516Y-48260D01*
X59516Y-48016D01*
X59385Y-47698D02*
X59647Y-47698D01*
X59235Y-47792D02*
X59516Y-47885D01*
X59516Y-47642D01*
X59254Y-47305D02*
X59254Y-47492D01*
X59441Y-47511D01*
X59422Y-47492D01*
X59403Y-47455D01*
X59403Y-47361D01*
X59422Y-47324D01*
X59441Y-47305D01*
X59478Y-47286D01*
X59572Y-47286D01*
X59609Y-47305D01*
X59628Y-47324D01*
X59647Y-47361D01*
X59647Y-47455D01*
X59628Y-47492D01*
X59609Y-47511D01*
X59441Y-46987D02*
X59459Y-46931D01*
X59478Y-46912D01*
X59516Y-46893D01*
X59572Y-46893D01*
X59609Y-46912D01*
X59628Y-46931D01*
X59647Y-46968D01*
X59647Y-47118D01*
X59254Y-47118D01*
X59254Y-46987D01*
X59272Y-46950D01*
X59291Y-46931D01*
X59328Y-46912D01*
X59366Y-46912D01*
X59403Y-46931D01*
X59422Y-46950D01*
X59441Y-46987D01*
X59441Y-47118D01*
X59647Y-46500D02*
X59459Y-46631D01*
X59647Y-46725D02*
X59254Y-46725D01*
X59254Y-46575D01*
X59272Y-46538D01*
X59291Y-46519D01*
X59328Y-46500D01*
X59385Y-46500D01*
X59422Y-46519D01*
X59441Y-46538D01*
X59459Y-46575D01*
X59459Y-46725D01*
G54D11*
X60155Y-46254D02*
X60131Y-46278D01*
X60060Y-46302D01*
X60012Y-46302D01*
X59941Y-46278D01*
X59893Y-46230D01*
X59869Y-46183D01*
X59846Y-46088D01*
X59846Y-46016D01*
X59869Y-45921D01*
X59893Y-45873D01*
X59941Y-45826D01*
X60012Y-45802D01*
X60060Y-45802D01*
X60131Y-45826D01*
X60155Y-45850D01*
X60631Y-46302D02*
X60346Y-46302D01*
X60488Y-46302D02*
X60488Y-45802D01*
X60441Y-45873D01*
X60393Y-45921D01*
X60346Y-45945D01*
X61107Y-46302D02*
X60822Y-46302D01*
X60965Y-46302D02*
X60965Y-45802D01*
X60917Y-45873D01*
X60869Y-45921D01*
X60822Y-45945D01*
X60655Y-45302D02*
X60703Y-45302D01*
X60750Y-45326D01*
X60774Y-45350D01*
X60798Y-45397D01*
X60822Y-45492D01*
X60822Y-45611D01*
X60798Y-45707D01*
X60774Y-45754D01*
X60750Y-45778D01*
X60703Y-45802D01*
X60655Y-45802D01*
X60607Y-45778D01*
X60584Y-45754D01*
X60560Y-45707D01*
X60536Y-45611D01*
X60536Y-45492D01*
X60560Y-45397D01*
X60584Y-45350D01*
X60607Y-45326D01*
X60655Y-45302D01*
X61036Y-45754D02*
X61060Y-45778D01*
X61036Y-45802D01*
X61012Y-45778D01*
X61036Y-45754D01*
X61036Y-45802D01*
X61536Y-45802D02*
X61250Y-45802D01*
X61393Y-45802D02*
X61393Y-45302D01*
X61346Y-45373D01*
X61298Y-45421D01*
X61250Y-45445D01*
X61965Y-45469D02*
X61965Y-45802D01*
X61750Y-45469D02*
X61750Y-45730D01*
X61774Y-45778D01*
X61822Y-45802D01*
X61893Y-45802D01*
X61941Y-45778D01*
X61965Y-45754D01*
X62369Y-45540D02*
X62203Y-45540D01*
X62203Y-45802D02*
X62203Y-45302D01*
X62441Y-45302D01*
X56572Y-46793D02*
X56548Y-46817D01*
X56477Y-46841D01*
X56429Y-46841D01*
X56358Y-46817D01*
X56310Y-46769D01*
X56286Y-46722D01*
X56263Y-46627D01*
X56263Y-46555D01*
X56286Y-46460D01*
X56310Y-46412D01*
X56358Y-46365D01*
X56429Y-46341D01*
X56477Y-46341D01*
X56548Y-46365D01*
X56572Y-46389D01*
X57048Y-46841D02*
X56763Y-46841D01*
X56905Y-46841D02*
X56905Y-46341D01*
X56858Y-46412D01*
X56810Y-46460D01*
X56763Y-46484D01*
X57239Y-46389D02*
X57263Y-46365D01*
X57310Y-46341D01*
X57429Y-46341D01*
X57477Y-46365D01*
X57501Y-46389D01*
X57524Y-46436D01*
X57524Y-46484D01*
X57501Y-46555D01*
X57215Y-46841D01*
X57524Y-46841D01*
X55072Y-46841D02*
X55120Y-46841D01*
X55167Y-46865D01*
X55191Y-46889D01*
X55215Y-46936D01*
X55239Y-47031D01*
X55239Y-47150D01*
X55215Y-47246D01*
X55191Y-47293D01*
X55167Y-47317D01*
X55120Y-47341D01*
X55072Y-47341D01*
X55024Y-47317D01*
X55001Y-47293D01*
X54977Y-47246D01*
X54953Y-47150D01*
X54953Y-47031D01*
X54977Y-46936D01*
X55001Y-46889D01*
X55024Y-46865D01*
X55072Y-46841D01*
X55453Y-47293D02*
X55477Y-47317D01*
X55453Y-47341D01*
X55429Y-47317D01*
X55453Y-47293D01*
X55453Y-47341D01*
X55953Y-47341D02*
X55667Y-47341D01*
X55810Y-47341D02*
X55810Y-46841D01*
X55763Y-46912D01*
X55715Y-46960D01*
X55667Y-46984D01*
X56382Y-47008D02*
X56382Y-47341D01*
X56167Y-47008D02*
X56167Y-47269D01*
X56191Y-47317D01*
X56239Y-47341D01*
X56310Y-47341D01*
X56358Y-47317D01*
X56382Y-47293D01*
X56786Y-47079D02*
X56620Y-47079D01*
X56620Y-47341D02*
X56620Y-46841D01*
X56858Y-46841D01*
X56572Y-44955D02*
X56548Y-44979D01*
X56477Y-45003D01*
X56429Y-45003D01*
X56358Y-44979D01*
X56310Y-44931D01*
X56286Y-44884D01*
X56263Y-44789D01*
X56263Y-44717D01*
X56286Y-44622D01*
X56310Y-44574D01*
X56358Y-44527D01*
X56429Y-44503D01*
X56477Y-44503D01*
X56548Y-44527D01*
X56572Y-44551D01*
X57048Y-45003D02*
X56763Y-45003D01*
X56905Y-45003D02*
X56905Y-44503D01*
X56858Y-44574D01*
X56810Y-44622D01*
X56763Y-44646D01*
X57215Y-44503D02*
X57524Y-44503D01*
X57358Y-44693D01*
X57429Y-44693D01*
X57477Y-44717D01*
X57501Y-44741D01*
X57524Y-44789D01*
X57524Y-44908D01*
X57501Y-44955D01*
X57477Y-44979D01*
X57429Y-45003D01*
X57286Y-45003D01*
X57239Y-44979D01*
X57215Y-44955D01*
X57191Y-44170D02*
X57191Y-44503D01*
X57072Y-43979D02*
X56953Y-44336D01*
X57263Y-44336D01*
X57453Y-44455D02*
X57477Y-44479D01*
X57453Y-44503D01*
X57429Y-44479D01*
X57453Y-44455D01*
X57453Y-44503D01*
X57644Y-44003D02*
X57977Y-44003D01*
X57763Y-44503D01*
X58382Y-44170D02*
X58382Y-44503D01*
X58167Y-44170D02*
X58167Y-44431D01*
X58191Y-44479D01*
X58239Y-44503D01*
X58310Y-44503D01*
X58358Y-44479D01*
X58382Y-44455D01*
X58786Y-44241D02*
X58620Y-44241D01*
X58620Y-44503D02*
X58620Y-44003D01*
X58858Y-44003D01*
X60824Y-46254D02*
X60800Y-46278D01*
X60729Y-46302D01*
X60681Y-46302D01*
X60610Y-46278D01*
X60562Y-46230D01*
X60538Y-46183D01*
X60515Y-46088D01*
X60515Y-46016D01*
X60538Y-45921D01*
X60562Y-45873D01*
X60610Y-45826D01*
X60681Y-45802D01*
X60729Y-45802D01*
X60800Y-45826D01*
X60824Y-45850D01*
X61300Y-46302D02*
X61015Y-46302D01*
X61157Y-46302D02*
X61157Y-45802D01*
X61110Y-45873D01*
X61062Y-45921D01*
X61015Y-45945D01*
X61729Y-45969D02*
X61729Y-46302D01*
X61610Y-45778D02*
X61491Y-46135D01*
X61800Y-46135D01*
X61443Y-45469D02*
X61443Y-45802D01*
X61324Y-45278D02*
X61205Y-45635D01*
X61515Y-45635D01*
X61705Y-45754D02*
X61729Y-45778D01*
X61705Y-45802D01*
X61681Y-45778D01*
X61705Y-45754D01*
X61705Y-45802D01*
X61896Y-45302D02*
X62229Y-45302D01*
X62015Y-45802D01*
X62634Y-45469D02*
X62634Y-45802D01*
X62419Y-45469D02*
X62419Y-45730D01*
X62443Y-45778D01*
X62491Y-45802D01*
X62562Y-45802D01*
X62610Y-45778D01*
X62634Y-45754D01*
X63038Y-45540D02*
X62872Y-45540D01*
X62872Y-45802D02*
X62872Y-45302D01*
X63110Y-45302D01*
X57151Y-44583D02*
X56913Y-44583D01*
X56913Y-44083D01*
X57580Y-44583D02*
X57294Y-44583D01*
X57437Y-44583D02*
X57437Y-44083D01*
X57389Y-44154D01*
X57342Y-44202D01*
X57294Y-44226D01*
X51842Y-43321D02*
X51913Y-43345D01*
X51937Y-43369D01*
X51961Y-43416D01*
X51961Y-43488D01*
X51937Y-43535D01*
X51913Y-43559D01*
X51865Y-43583D01*
X51675Y-43583D01*
X51675Y-43083D01*
X51842Y-43083D01*
X51889Y-43107D01*
X51913Y-43131D01*
X51937Y-43178D01*
X51937Y-43226D01*
X51913Y-43273D01*
X51889Y-43297D01*
X51842Y-43321D01*
X51675Y-43321D01*
X52413Y-43583D02*
X52175Y-43583D01*
X52175Y-43083D01*
X52580Y-43583D02*
X52580Y-43083D01*
X52746Y-43440D01*
X52913Y-43083D01*
X52913Y-43583D01*
X53413Y-43583D02*
X53127Y-43583D01*
X53270Y-43583D02*
X53270Y-43083D01*
X53223Y-43154D01*
X53175Y-43202D01*
X53127Y-43226D01*
X53865Y-43083D02*
X53627Y-43083D01*
X53604Y-43321D01*
X53627Y-43297D01*
X53675Y-43273D01*
X53794Y-43273D01*
X53842Y-43297D01*
X53865Y-43321D01*
X53889Y-43369D01*
X53889Y-43488D01*
X53865Y-43535D01*
X53842Y-43559D01*
X53794Y-43583D01*
X53675Y-43583D01*
X53627Y-43559D01*
X53604Y-43535D01*
X54104Y-43583D02*
X54104Y-43083D01*
X54104Y-43321D02*
X54389Y-43321D01*
X54389Y-43583D02*
X54389Y-43083D01*
X54794Y-43321D02*
X54865Y-43345D01*
X54889Y-43369D01*
X54913Y-43416D01*
X54913Y-43488D01*
X54889Y-43535D01*
X54865Y-43559D01*
X54818Y-43583D01*
X54627Y-43583D01*
X54627Y-43083D01*
X54794Y-43083D01*
X54842Y-43107D01*
X54865Y-43131D01*
X54889Y-43178D01*
X54889Y-43226D01*
X54865Y-43273D01*
X54842Y-43297D01*
X54794Y-43321D01*
X54627Y-43321D01*
X55389Y-43583D02*
X55104Y-43583D01*
X55246Y-43583D02*
X55246Y-43083D01*
X55199Y-43154D01*
X55151Y-43202D01*
X55104Y-43226D01*
X55580Y-43131D02*
X55604Y-43107D01*
X55651Y-43083D01*
X55770Y-43083D01*
X55818Y-43107D01*
X55842Y-43131D01*
X55865Y-43178D01*
X55865Y-43226D01*
X55842Y-43297D01*
X55556Y-43583D01*
X55865Y-43583D01*
X56342Y-43583D02*
X56056Y-43583D01*
X56199Y-43583D02*
X56199Y-43083D01*
X56151Y-43154D01*
X56104Y-43202D01*
X56056Y-43226D01*
X56532Y-43559D02*
X56604Y-43583D01*
X56723Y-43583D01*
X56770Y-43559D01*
X56794Y-43535D01*
X56818Y-43488D01*
X56818Y-43440D01*
X56794Y-43392D01*
X56770Y-43369D01*
X56723Y-43345D01*
X56627Y-43321D01*
X56580Y-43297D01*
X56556Y-43273D01*
X56532Y-43226D01*
X56532Y-43178D01*
X56556Y-43131D01*
X56580Y-43107D01*
X56627Y-43083D01*
X56746Y-43083D01*
X56818Y-43107D01*
X57032Y-43583D02*
X57032Y-43083D01*
X57318Y-43583D01*
X57318Y-43083D01*
X57818Y-43583D02*
X57532Y-43583D01*
X57675Y-43583D02*
X57675Y-43083D01*
X57627Y-43154D01*
X57580Y-43202D01*
X57532Y-43226D01*
X56074Y-45598D02*
X56050Y-45622D01*
X55979Y-45646D01*
X55931Y-45646D01*
X55860Y-45622D01*
X55812Y-45574D01*
X55788Y-45527D01*
X55765Y-45432D01*
X55765Y-45360D01*
X55788Y-45265D01*
X55812Y-45217D01*
X55860Y-45170D01*
X55931Y-45146D01*
X55979Y-45146D01*
X56050Y-45170D01*
X56074Y-45194D01*
X56550Y-45646D02*
X56265Y-45646D01*
X56407Y-45646D02*
X56407Y-45146D01*
X56360Y-45217D01*
X56312Y-45265D01*
X56265Y-45289D01*
X57003Y-45146D02*
X56765Y-45146D01*
X56741Y-45384D01*
X56765Y-45360D01*
X56812Y-45336D01*
X56931Y-45336D01*
X56979Y-45360D01*
X57003Y-45384D01*
X57026Y-45432D01*
X57026Y-45551D01*
X57003Y-45598D01*
X56979Y-45622D01*
X56931Y-45646D01*
X56812Y-45646D01*
X56765Y-45622D01*
X56741Y-45598D01*
X56074Y-46146D02*
X56122Y-46146D01*
X56169Y-46170D01*
X56193Y-46194D01*
X56217Y-46241D01*
X56241Y-46336D01*
X56241Y-46455D01*
X56217Y-46551D01*
X56193Y-46598D01*
X56169Y-46622D01*
X56122Y-46646D01*
X56074Y-46646D01*
X56026Y-46622D01*
X56003Y-46598D01*
X55979Y-46551D01*
X55955Y-46455D01*
X55955Y-46336D01*
X55979Y-46241D01*
X56003Y-46194D01*
X56026Y-46170D01*
X56074Y-46146D01*
X56455Y-46598D02*
X56479Y-46622D01*
X56455Y-46646D01*
X56431Y-46622D01*
X56455Y-46598D01*
X56455Y-46646D01*
X56955Y-46646D02*
X56669Y-46646D01*
X56812Y-46646D02*
X56812Y-46146D01*
X56765Y-46217D01*
X56717Y-46265D01*
X56669Y-46289D01*
X57384Y-46313D02*
X57384Y-46646D01*
X57169Y-46313D02*
X57169Y-46574D01*
X57193Y-46622D01*
X57241Y-46646D01*
X57312Y-46646D01*
X57360Y-46622D01*
X57384Y-46598D01*
X57788Y-46384D02*
X57622Y-46384D01*
X57622Y-46646D02*
X57622Y-46146D01*
X57860Y-46146D01*
G54D12*
X59593Y-44212D02*
X59665Y-44236D01*
X59784Y-44236D01*
X59831Y-44212D01*
X59855Y-44188D01*
X59879Y-44141D01*
X59879Y-44093D01*
X59855Y-44045D01*
X59831Y-44022D01*
X59784Y-43998D01*
X59688Y-43974D01*
X59641Y-43950D01*
X59617Y-43926D01*
X59593Y-43879D01*
X59593Y-43831D01*
X59617Y-43784D01*
X59641Y-43760D01*
X59688Y-43736D01*
X59807Y-43736D01*
X59879Y-43760D01*
X60236Y-43736D02*
X60236Y-44093D01*
X60212Y-44164D01*
X60165Y-44212D01*
X60093Y-44236D01*
X60045Y-44236D01*
X60736Y-44236D02*
X60450Y-44236D01*
X60593Y-44236D02*
X60593Y-43736D01*
X60545Y-43807D01*
X60498Y-43855D01*
X60450Y-43879D01*
G54D14*
X59962Y-44343D02*
X59962Y-44343D01*
X59962Y-44343D01*
X59961Y-44343D01*
X59962Y-44343D01*
X59962Y-44343D01*
G54D12*
X58254Y-44212D02*
X58326Y-44236D01*
X58445Y-44236D01*
X58492Y-44212D01*
X58516Y-44188D01*
X58540Y-44141D01*
X58540Y-44093D01*
X58516Y-44045D01*
X58492Y-44022D01*
X58445Y-43998D01*
X58349Y-43974D01*
X58302Y-43950D01*
X58278Y-43926D01*
X58254Y-43879D01*
X58254Y-43831D01*
X58278Y-43784D01*
X58302Y-43760D01*
X58349Y-43736D01*
X58468Y-43736D01*
X58540Y-43760D01*
X58897Y-43736D02*
X58897Y-44093D01*
X58873Y-44164D01*
X58826Y-44212D01*
X58754Y-44236D01*
X58706Y-44236D01*
X59111Y-43784D02*
X59135Y-43760D01*
X59183Y-43736D01*
X59302Y-43736D01*
X59349Y-43760D01*
X59373Y-43784D01*
X59397Y-43831D01*
X59397Y-43879D01*
X59373Y-43950D01*
X59087Y-44236D01*
X59397Y-44236D01*
G54D14*
X58623Y-44343D02*
X58623Y-44343D01*
X58623Y-44343D01*
X58622Y-44343D01*
X58623Y-44343D01*
X58623Y-44343D01*
G54D12*
X57854Y-46520D02*
X57926Y-46544D01*
X58045Y-46544D01*
X58092Y-46520D01*
X58116Y-46496D01*
X58140Y-46449D01*
X58140Y-46401D01*
X58116Y-46353D01*
X58092Y-46330D01*
X58045Y-46306D01*
X57949Y-46282D01*
X57902Y-46258D01*
X57878Y-46234D01*
X57854Y-46187D01*
X57854Y-46139D01*
X57878Y-46092D01*
X57902Y-46068D01*
X57949Y-46044D01*
X58068Y-46044D01*
X58140Y-46068D01*
X58497Y-46044D02*
X58497Y-46401D01*
X58473Y-46472D01*
X58426Y-46520D01*
X58354Y-46544D01*
X58306Y-46544D01*
X58687Y-46044D02*
X58997Y-46044D01*
X58830Y-46234D01*
X58902Y-46234D01*
X58949Y-46258D01*
X58973Y-46282D01*
X58997Y-46330D01*
X58997Y-46449D01*
X58973Y-46496D01*
X58949Y-46520D01*
X58902Y-46544D01*
X58759Y-46544D01*
X58711Y-46520D01*
X58687Y-46496D01*
G54D14*
X58629Y-46037D02*
X58629Y-46037D01*
X58629Y-46037D01*
X58628Y-46037D01*
X58629Y-46037D01*
X58629Y-46037D01*
G54D11*
X59578Y-44913D02*
X59578Y-45151D01*
X59078Y-45151D01*
X59316Y-44746D02*
X59316Y-44580D01*
X59578Y-44508D02*
X59578Y-44746D01*
X59078Y-44746D01*
X59078Y-44508D01*
X59578Y-44294D02*
X59078Y-44294D01*
X59078Y-44175D01*
X59102Y-44104D01*
X59149Y-44056D01*
X59197Y-44032D01*
X59292Y-44008D01*
X59364Y-44008D01*
X59459Y-44032D01*
X59506Y-44056D01*
X59554Y-44104D01*
X59578Y-44175D01*
X59578Y-44294D01*
X59126Y-43818D02*
X59102Y-43794D01*
X59078Y-43746D01*
X59078Y-43627D01*
X59102Y-43580D01*
X59126Y-43556D01*
X59173Y-43532D01*
X59221Y-43532D01*
X59292Y-43556D01*
X59578Y-43842D01*
X59578Y-43532D01*
X59030Y-45354D02*
X59054Y-45330D01*
X59078Y-45354D01*
X59054Y-45377D01*
X59030Y-45354D01*
X59078Y-45354D01*
X57269Y-45056D02*
X57103Y-44818D01*
X56983Y-45056D02*
X56983Y-44556D01*
X57174Y-44556D01*
X57222Y-44580D01*
X57245Y-44604D01*
X57269Y-44651D01*
X57269Y-44723D01*
X57245Y-44770D01*
X57222Y-44794D01*
X57174Y-44818D01*
X56983Y-44818D01*
X57722Y-44556D02*
X57483Y-44556D01*
X57460Y-44794D01*
X57483Y-44770D01*
X57531Y-44746D01*
X57650Y-44746D01*
X57698Y-44770D01*
X57722Y-44794D01*
X57745Y-44842D01*
X57745Y-44961D01*
X57722Y-45008D01*
X57698Y-45032D01*
X57650Y-45056D01*
X57531Y-45056D01*
X57483Y-45032D01*
X57460Y-45008D01*
X56733Y-43604D02*
X56757Y-43580D01*
X56805Y-43556D01*
X56924Y-43556D01*
X56972Y-43580D01*
X56995Y-43604D01*
X57019Y-43651D01*
X57019Y-43699D01*
X56995Y-43770D01*
X56710Y-44056D01*
X57019Y-44056D01*
X57210Y-43604D02*
X57233Y-43580D01*
X57281Y-43556D01*
X57400Y-43556D01*
X57448Y-43580D01*
X57472Y-43604D01*
X57495Y-43651D01*
X57495Y-43699D01*
X57472Y-43770D01*
X57186Y-44056D01*
X57495Y-44056D01*
X57805Y-43556D02*
X57853Y-43556D01*
X57900Y-43580D01*
X57924Y-43604D01*
X57948Y-43651D01*
X57972Y-43746D01*
X57972Y-43865D01*
X57948Y-43961D01*
X57924Y-44008D01*
X57900Y-44032D01*
X57853Y-44056D01*
X57805Y-44056D01*
X57757Y-44032D01*
X57733Y-44008D01*
X57710Y-43961D01*
X57686Y-43865D01*
X57686Y-43746D01*
X57710Y-43651D01*
X57733Y-43604D01*
X57757Y-43580D01*
X57805Y-43556D01*
X56074Y-46583D02*
X56050Y-46607D01*
X55979Y-46631D01*
X55931Y-46631D01*
X55860Y-46607D01*
X55812Y-46559D01*
X55788Y-46512D01*
X55765Y-46417D01*
X55765Y-46345D01*
X55788Y-46250D01*
X55812Y-46202D01*
X55860Y-46155D01*
X55931Y-46131D01*
X55979Y-46131D01*
X56050Y-46155D01*
X56074Y-46179D01*
X56550Y-46631D02*
X56265Y-46631D01*
X56407Y-46631D02*
X56407Y-46131D01*
X56360Y-46202D01*
X56312Y-46250D01*
X56265Y-46274D01*
X56979Y-46131D02*
X56884Y-46131D01*
X56836Y-46155D01*
X56812Y-46179D01*
X56765Y-46250D01*
X56741Y-46345D01*
X56741Y-46536D01*
X56765Y-46583D01*
X56788Y-46607D01*
X56836Y-46631D01*
X56931Y-46631D01*
X56979Y-46607D01*
X57003Y-46583D01*
X57026Y-46536D01*
X57026Y-46417D01*
X57003Y-46369D01*
X56979Y-46345D01*
X56931Y-46321D01*
X56836Y-46321D01*
X56788Y-46345D01*
X56765Y-46369D01*
X56741Y-46417D01*
X56193Y-47298D02*
X56193Y-47631D01*
X56074Y-47107D02*
X55955Y-47464D01*
X56265Y-47464D01*
X56455Y-47583D02*
X56479Y-47607D01*
X56455Y-47631D01*
X56431Y-47607D01*
X56455Y-47583D01*
X56455Y-47631D01*
X56646Y-47131D02*
X56979Y-47131D01*
X56765Y-47631D01*
X57384Y-47298D02*
X57384Y-47631D01*
X57169Y-47298D02*
X57169Y-47559D01*
X57193Y-47607D01*
X57241Y-47631D01*
X57312Y-47631D01*
X57360Y-47607D01*
X57384Y-47583D01*
X57788Y-47369D02*
X57622Y-47369D01*
X57622Y-47631D02*
X57622Y-47131D01*
X57860Y-47131D01*
G54D12*
X54196Y-39605D02*
X54196Y-39962D01*
X54172Y-40033D01*
X54124Y-40081D01*
X54053Y-40105D01*
X54005Y-40105D01*
X54434Y-40105D02*
X54434Y-39605D01*
X54624Y-39605D01*
X54672Y-39629D01*
X54696Y-39653D01*
X54720Y-39700D01*
X54720Y-39772D01*
X54696Y-39819D01*
X54672Y-39843D01*
X54624Y-39867D01*
X54434Y-39867D01*
X55196Y-40105D02*
X54910Y-40105D01*
X55053Y-40105D02*
X55053Y-39605D01*
X55005Y-39676D01*
X54958Y-39724D01*
X54910Y-39748D01*
G54D11*
X56583Y-40527D02*
X56606Y-40551D01*
X56583Y-40575D01*
X56559Y-40551D01*
X56583Y-40527D01*
X56583Y-40575D01*
G54D12*
X62124Y-35549D02*
X62124Y-35906D01*
X62100Y-35977D01*
X62052Y-36025D01*
X61981Y-36049D01*
X61933Y-36049D01*
X62362Y-36049D02*
X62362Y-35549D01*
X62552Y-35549D01*
X62600Y-35573D01*
X62624Y-35597D01*
X62648Y-35644D01*
X62648Y-35716D01*
X62624Y-35763D01*
X62600Y-35787D01*
X62552Y-35811D01*
X62362Y-35811D01*
X62838Y-35597D02*
X62862Y-35573D01*
X62910Y-35549D01*
X63029Y-35549D01*
X63076Y-35573D01*
X63100Y-35597D01*
X63124Y-35644D01*
X63124Y-35692D01*
X63100Y-35763D01*
X62814Y-36049D01*
X63124Y-36049D01*
G54D11*
X60571Y-35531D02*
X60594Y-35555D01*
X60571Y-35579D01*
X60547Y-35555D01*
X60571Y-35531D01*
X60571Y-35579D01*
G54D12*
X54196Y-43601D02*
X54196Y-43958D01*
X54172Y-44029D01*
X54124Y-44077D01*
X54053Y-44101D01*
X54005Y-44101D01*
X54434Y-44101D02*
X54434Y-43601D01*
X54624Y-43601D01*
X54672Y-43625D01*
X54696Y-43649D01*
X54720Y-43696D01*
X54720Y-43768D01*
X54696Y-43815D01*
X54672Y-43839D01*
X54624Y-43863D01*
X54434Y-43863D01*
X54886Y-43601D02*
X55196Y-43601D01*
X55029Y-43791D01*
X55101Y-43791D01*
X55148Y-43815D01*
X55172Y-43839D01*
X55196Y-43887D01*
X55196Y-44006D01*
X55172Y-44053D01*
X55148Y-44077D01*
X55101Y-44101D01*
X54958Y-44101D01*
X54910Y-44077D01*
X54886Y-44053D01*
G54D11*
X56583Y-44523D02*
X56606Y-44547D01*
X56583Y-44571D01*
X56559Y-44547D01*
X56583Y-44523D01*
X56583Y-44571D01*
G54D12*
X55136Y-44545D02*
X55136Y-44902D01*
X55112Y-44973D01*
X55064Y-45021D01*
X54993Y-45045D01*
X54945Y-45045D01*
X55374Y-45045D02*
X55374Y-44545D01*
X55564Y-44545D01*
X55612Y-44569D01*
X55636Y-44593D01*
X55660Y-44640D01*
X55660Y-44712D01*
X55636Y-44759D01*
X55612Y-44783D01*
X55564Y-44807D01*
X55374Y-44807D01*
X56088Y-44712D02*
X56088Y-45045D01*
X55969Y-44521D02*
X55850Y-44878D01*
X56160Y-44878D01*
G54D11*
X53583Y-44527D02*
X53606Y-44551D01*
X53583Y-44575D01*
X53559Y-44551D01*
X53583Y-44527D01*
X53583Y-44575D01*
M02*
