G04 (created by PCBNEW (2013-jul-07)-stable) date Mon 28 Dec 2015 12:05:22 PM PST*
%MOIN*%
G04 Gerber Fmt 3.4, Leading zero omitted, Abs format*
%FSLAX34Y34*%
G01*
G70*
G90*
G04 APERTURE LIST*
%ADD10C,0.00393701*%
%ADD11R,0.063X0.046*%
%ADD12O,0.074X0.074*%
%ADD13C,0.0122*%
%ADD14C,0.01*%
G04 APERTURE END LIST*
G54D10*
G54D11*
X59965Y-43884D03*
X59965Y-44484D03*
X58626Y-43884D03*
X58626Y-44484D03*
X58626Y-46492D03*
X58626Y-45892D03*
G54D12*
X55083Y-39873D03*
X55083Y-38873D03*
X55083Y-37873D03*
X55083Y-36873D03*
X55083Y-35873D03*
X62071Y-35877D03*
X62071Y-36877D03*
X62071Y-37877D03*
X62071Y-38877D03*
X62071Y-39877D03*
X62071Y-40877D03*
X62071Y-41877D03*
X62071Y-42877D03*
X62071Y-43877D03*
X62071Y-44877D03*
X62071Y-45877D03*
X62071Y-46877D03*
X55083Y-43869D03*
X55083Y-42869D03*
X55083Y-41869D03*
X55083Y-40869D03*
X55083Y-44873D03*
X55083Y-45873D03*
X55083Y-46873D03*
G54D13*
X57339Y-36161D03*
X57012Y-40129D03*
X57170Y-41625D03*
X59571Y-42295D03*
X59296Y-44854D03*
X60477Y-42177D03*
X60477Y-45484D03*
X58193Y-42373D03*
X58626Y-43003D03*
X59973Y-42677D03*
X56697Y-43909D03*
X57957Y-40326D03*
X57886Y-39999D03*
X58233Y-40090D03*
X58556Y-39999D03*
X58823Y-41822D03*
X59847Y-39303D03*
X56233Y-38385D03*
X56697Y-36940D03*
X60831Y-45366D03*
X57052Y-36468D03*
G54D14*
X58626Y-43884D02*
X58626Y-43003D01*
X56697Y-43909D02*
X56697Y-43358D01*
X56697Y-43358D02*
X57367Y-42688D01*
X57367Y-42688D02*
X59961Y-42688D01*
X59961Y-42688D02*
X59973Y-42677D01*
X59965Y-43884D02*
X59965Y-42684D01*
X59965Y-42684D02*
X59973Y-42677D01*
X57957Y-40326D02*
X57957Y-41862D01*
X57957Y-41862D02*
X57563Y-42255D01*
X57563Y-42255D02*
X56343Y-42255D01*
X56343Y-42255D02*
X56067Y-42531D01*
X56067Y-42531D02*
X55422Y-42531D01*
X55422Y-42531D02*
X55083Y-42869D01*
X55536Y-42322D02*
X55957Y-42322D01*
X55957Y-42322D02*
X56272Y-42047D01*
X56272Y-42047D02*
X57453Y-42047D01*
X57453Y-42047D02*
X57689Y-41810D01*
X57689Y-41810D02*
X57682Y-40208D01*
X57682Y-40208D02*
X57886Y-40003D01*
X57886Y-40003D02*
X57886Y-39999D01*
X55536Y-42322D02*
X55083Y-41869D01*
X58233Y-40090D02*
X58233Y-39972D01*
X58233Y-39972D02*
X57918Y-39657D01*
X57918Y-39657D02*
X56296Y-39657D01*
X56296Y-39657D02*
X55083Y-40869D01*
X58608Y-45873D02*
X58626Y-45892D01*
X58626Y-45892D02*
X58626Y-44484D01*
X58626Y-44484D02*
X59965Y-44484D01*
X58608Y-45873D02*
X55083Y-45873D01*
X58567Y-41566D02*
X57642Y-42491D01*
X57642Y-42491D02*
X56461Y-42491D01*
X56461Y-42491D02*
X55083Y-43869D01*
X58823Y-41822D02*
X58567Y-41566D01*
X58556Y-39999D02*
X58567Y-40011D01*
X58567Y-40011D02*
X58567Y-41566D01*
X59989Y-35862D02*
X60052Y-35925D01*
X59989Y-35862D02*
X55095Y-35862D01*
X55095Y-35862D02*
X55083Y-35873D01*
X59847Y-39303D02*
X60052Y-39098D01*
X60052Y-39098D02*
X60052Y-35925D01*
X56528Y-38110D02*
X56233Y-38385D01*
X56528Y-38110D02*
X56697Y-37940D01*
X56697Y-37940D02*
X56697Y-36940D01*
X58626Y-46492D02*
X58626Y-46468D01*
X57052Y-36468D02*
X58941Y-36468D01*
X58941Y-36468D02*
X59375Y-36901D01*
X59375Y-36901D02*
X59375Y-41547D01*
X59375Y-41547D02*
X60556Y-42728D01*
X60556Y-42728D02*
X60556Y-45090D01*
X60556Y-45090D02*
X60831Y-45366D01*
X58626Y-46492D02*
X59901Y-46492D01*
X59901Y-46492D02*
X60831Y-45562D01*
X60831Y-45562D02*
X60831Y-45366D01*
M02*
