G04 (created by PCBNEW (2013-jul-07)-stable) date Mon 28 Dec 2015 12:05:22 PM PST*
%MOIN*%
G04 Gerber Fmt 3.4, Leading zero omitted, Abs format*
%FSLAX34Y34*%
G01*
G70*
G90*
G04 APERTURE LIST*
%ADD10C,0.00393701*%
%ADD11C,0.005*%
%ADD12C,0.006*%
%ADD13C,0.002*%
%ADD14C,0.008*%
G04 APERTURE END LIST*
G54D10*
G54D11*
X56638Y-43082D02*
X56697Y-43082D01*
X56697Y-43082D02*
X56697Y-42964D01*
X56697Y-42964D02*
X56638Y-42964D01*
X56638Y-42964D02*
X56638Y-43082D01*
X56933Y-43082D02*
X56992Y-43082D01*
X56992Y-43082D02*
X56992Y-42964D01*
X56992Y-42964D02*
X56933Y-42964D01*
X56933Y-42964D02*
X56933Y-43082D01*
X56756Y-43082D02*
X56874Y-43082D01*
X56874Y-43082D02*
X56874Y-42964D01*
X56874Y-42964D02*
X56756Y-42964D01*
X56756Y-42964D02*
X56756Y-43082D01*
G54D12*
X58517Y-42020D02*
X58517Y-43043D01*
X57238Y-43043D02*
X57238Y-42020D01*
X58261Y-42020D02*
G75*
G02X58389Y-41892I128J0D01*
G74*
G01*
X57366Y-42148D02*
G75*
G02X57238Y-42020I0J128D01*
G74*
G01*
X57366Y-42915D02*
G75*
G03X57238Y-43043I0J-128D01*
G74*
G01*
X58261Y-43043D02*
G75*
G03X58389Y-43171I128J0D01*
G74*
G01*
G54D13*
X57702Y-42842D02*
G75*
G03X57702Y-42842I-196J0D01*
G74*
G01*
G54D12*
X60525Y-42059D02*
X60525Y-43082D01*
X59246Y-43082D02*
X59246Y-42059D01*
X60269Y-42059D02*
G75*
G02X60397Y-41931I128J0D01*
G74*
G01*
X59374Y-42187D02*
G75*
G02X59246Y-42059I0J128D01*
G74*
G01*
X59374Y-42954D02*
G75*
G03X59246Y-43082I0J-128D01*
G74*
G01*
X60269Y-43082D02*
G75*
G03X60397Y-43210I128J0D01*
G74*
G01*
G54D13*
X59710Y-42881D02*
G75*
G03X59710Y-42881I-196J0D01*
G74*
G01*
G54D14*
X59414Y-47333D02*
X57918Y-47333D01*
X57918Y-45445D02*
X59414Y-45445D01*
G54D11*
X58386Y-45639D02*
G75*
G03X58386Y-45639I-70J0D01*
G74*
G01*
G54D12*
X59565Y-44734D02*
X59565Y-43634D01*
X60265Y-44634D02*
G75*
G02X60365Y-44734I0J-100D01*
G74*
G01*
X60165Y-43634D02*
G75*
G02X60265Y-43534I100J0D01*
G74*
G01*
X59765Y-43634D02*
G75*
G03X59665Y-43534I-100J0D01*
G74*
G01*
X59665Y-44634D02*
G75*
G03X59565Y-44734I0J-100D01*
G74*
G01*
X59665Y-44834D02*
X60265Y-44834D01*
X59665Y-43534D02*
X60265Y-43534D01*
X60365Y-43634D02*
X60365Y-44734D01*
X58226Y-44734D02*
X58226Y-43634D01*
X58926Y-44634D02*
G75*
G02X59026Y-44734I0J-100D01*
G74*
G01*
X58826Y-43634D02*
G75*
G02X58926Y-43534I100J0D01*
G74*
G01*
X58426Y-43634D02*
G75*
G03X58326Y-43534I-100J0D01*
G74*
G01*
X58326Y-44634D02*
G75*
G03X58226Y-44734I0J-100D01*
G74*
G01*
X58326Y-44834D02*
X58926Y-44834D01*
X58326Y-43534D02*
X58926Y-43534D01*
X59026Y-43634D02*
X59026Y-44734D01*
X59026Y-45642D02*
X59026Y-46742D01*
X58326Y-45742D02*
G75*
G02X58226Y-45642I0J100D01*
G74*
G01*
X58426Y-46742D02*
G75*
G02X58326Y-46842I-100J0D01*
G74*
G01*
X58826Y-46742D02*
G75*
G03X58926Y-46842I100J0D01*
G74*
G01*
X58926Y-45742D02*
G75*
G03X59026Y-45642I0J100D01*
G74*
G01*
X58926Y-45542D02*
X58326Y-45542D01*
X58926Y-46842D02*
X58326Y-46842D01*
X58226Y-46742D02*
X58226Y-45642D01*
G54D11*
X58626Y-44677D02*
X58626Y-44736D01*
X58626Y-44736D02*
X58744Y-44736D01*
X58744Y-44736D02*
X58744Y-44677D01*
X58744Y-44677D02*
X58626Y-44677D01*
X58626Y-44972D02*
X58626Y-45031D01*
X58626Y-45031D02*
X58744Y-45031D01*
X58744Y-45031D02*
X58744Y-44972D01*
X58744Y-44972D02*
X58626Y-44972D01*
X58626Y-44795D02*
X58626Y-44913D01*
X58626Y-44913D02*
X58744Y-44913D01*
X58744Y-44913D02*
X58744Y-44795D01*
X58744Y-44795D02*
X58626Y-44795D01*
G54D14*
X54583Y-37123D02*
X54583Y-36623D01*
X54583Y-36623D02*
X54833Y-36373D01*
X55333Y-36373D02*
X55583Y-36623D01*
X54833Y-36373D02*
X54583Y-36123D01*
X54583Y-36123D02*
X54583Y-35623D01*
X54583Y-35623D02*
X54833Y-35373D01*
X55333Y-35373D02*
X55583Y-35623D01*
X55583Y-35623D02*
X55583Y-36123D01*
X55583Y-36123D02*
X55333Y-36373D01*
X54833Y-38373D02*
X54583Y-38123D01*
X54583Y-38123D02*
X54583Y-37623D01*
X54583Y-37623D02*
X54833Y-37373D01*
X55333Y-37373D02*
X55583Y-37623D01*
X55583Y-37623D02*
X55583Y-38123D01*
X55583Y-38123D02*
X55333Y-38373D01*
X54583Y-37123D02*
X54833Y-37373D01*
X55333Y-37373D02*
X55583Y-37123D01*
X55583Y-36623D02*
X55583Y-37123D01*
X54583Y-40123D02*
X54583Y-39623D01*
X54583Y-39623D02*
X54833Y-39373D01*
X55333Y-39373D02*
X55583Y-39623D01*
X54833Y-39373D02*
X54583Y-39123D01*
X54583Y-39123D02*
X54583Y-38623D01*
X54583Y-38623D02*
X54833Y-38373D01*
X55333Y-38373D02*
X55583Y-38623D01*
X55583Y-38623D02*
X55583Y-39123D01*
X55583Y-39123D02*
X55333Y-39373D01*
X54833Y-40373D02*
X55333Y-40373D01*
X54583Y-40123D02*
X54833Y-40373D01*
X55333Y-40373D02*
X55583Y-40123D01*
X55583Y-39623D02*
X55583Y-40123D01*
X54833Y-35373D02*
X55333Y-35373D01*
X62571Y-41627D02*
X62571Y-42127D01*
X62571Y-42127D02*
X62321Y-42377D01*
X61821Y-42377D02*
X61571Y-42127D01*
X62321Y-40377D02*
X62571Y-40627D01*
X62571Y-40627D02*
X62571Y-41127D01*
X62571Y-41127D02*
X62321Y-41377D01*
X61821Y-41377D02*
X61571Y-41127D01*
X61571Y-41127D02*
X61571Y-40627D01*
X61571Y-40627D02*
X61821Y-40377D01*
X62571Y-41627D02*
X62321Y-41377D01*
X61821Y-41377D02*
X61571Y-41627D01*
X61571Y-42127D02*
X61571Y-41627D01*
X62571Y-38627D02*
X62571Y-39127D01*
X62571Y-39127D02*
X62321Y-39377D01*
X61821Y-39377D02*
X61571Y-39127D01*
X62321Y-39377D02*
X62571Y-39627D01*
X62571Y-39627D02*
X62571Y-40127D01*
X62571Y-40127D02*
X62321Y-40377D01*
X61821Y-40377D02*
X61571Y-40127D01*
X61571Y-40127D02*
X61571Y-39627D01*
X61571Y-39627D02*
X61821Y-39377D01*
X62321Y-37377D02*
X62571Y-37627D01*
X62571Y-37627D02*
X62571Y-38127D01*
X62571Y-38127D02*
X62321Y-38377D01*
X61821Y-38377D02*
X61571Y-38127D01*
X61571Y-38127D02*
X61571Y-37627D01*
X61571Y-37627D02*
X61821Y-37377D01*
X62571Y-38627D02*
X62321Y-38377D01*
X61821Y-38377D02*
X61571Y-38627D01*
X61571Y-39127D02*
X61571Y-38627D01*
X62571Y-35627D02*
X62571Y-36127D01*
X62571Y-36127D02*
X62321Y-36377D01*
X61821Y-36377D02*
X61571Y-36127D01*
X62321Y-36377D02*
X62571Y-36627D01*
X62571Y-36627D02*
X62571Y-37127D01*
X62571Y-37127D02*
X62321Y-37377D01*
X61821Y-37377D02*
X61571Y-37127D01*
X61571Y-37127D02*
X61571Y-36627D01*
X61571Y-36627D02*
X61821Y-36377D01*
X62321Y-35377D02*
X61821Y-35377D01*
X62571Y-35627D02*
X62321Y-35377D01*
X61821Y-35377D02*
X61571Y-35627D01*
X61571Y-36127D02*
X61571Y-35627D01*
X62571Y-42627D02*
X62571Y-43127D01*
X62571Y-43127D02*
X62321Y-43377D01*
X61821Y-43377D02*
X61571Y-43127D01*
X62571Y-42627D02*
X62321Y-42377D01*
X61821Y-42377D02*
X61571Y-42627D01*
X61571Y-43127D02*
X61571Y-42627D01*
X62571Y-43627D02*
X62571Y-44127D01*
X62571Y-44127D02*
X62321Y-44377D01*
X61821Y-44377D02*
X61571Y-44127D01*
X62571Y-43627D02*
X62321Y-43377D01*
X61821Y-43377D02*
X61571Y-43627D01*
X61571Y-44127D02*
X61571Y-43627D01*
X62571Y-44627D02*
X62571Y-45127D01*
X62571Y-45127D02*
X62321Y-45377D01*
X61821Y-45377D02*
X61571Y-45127D01*
X62571Y-44627D02*
X62321Y-44377D01*
X61821Y-44377D02*
X61571Y-44627D01*
X61571Y-45127D02*
X61571Y-44627D01*
X62571Y-45627D02*
X62571Y-46127D01*
X62571Y-46127D02*
X62321Y-46377D01*
X61821Y-46377D02*
X61571Y-46127D01*
X62571Y-45627D02*
X62321Y-45377D01*
X61821Y-45377D02*
X61571Y-45627D01*
X61571Y-46127D02*
X61571Y-45627D01*
X62571Y-46627D02*
X62571Y-47127D01*
X62571Y-47127D02*
X62321Y-47377D01*
X62321Y-47377D02*
X61821Y-47377D01*
X61821Y-47377D02*
X61571Y-47127D01*
X62571Y-46627D02*
X62321Y-46377D01*
X61821Y-46377D02*
X61571Y-46627D01*
X61571Y-47127D02*
X61571Y-46627D01*
X54583Y-41119D02*
X54583Y-40619D01*
X54583Y-40619D02*
X54833Y-40369D01*
X55333Y-40369D02*
X55583Y-40619D01*
X54833Y-42369D02*
X54583Y-42119D01*
X54583Y-42119D02*
X54583Y-41619D01*
X54583Y-41619D02*
X54833Y-41369D01*
X55333Y-41369D02*
X55583Y-41619D01*
X55583Y-41619D02*
X55583Y-42119D01*
X55583Y-42119D02*
X55333Y-42369D01*
X54583Y-41119D02*
X54833Y-41369D01*
X55333Y-41369D02*
X55583Y-41119D01*
X55583Y-40619D02*
X55583Y-41119D01*
X54583Y-44119D02*
X54583Y-43619D01*
X54583Y-43619D02*
X54833Y-43369D01*
X55333Y-43369D02*
X55583Y-43619D01*
X54833Y-43369D02*
X54583Y-43119D01*
X54583Y-43119D02*
X54583Y-42619D01*
X54583Y-42619D02*
X54833Y-42369D01*
X55333Y-42369D02*
X55583Y-42619D01*
X55583Y-42619D02*
X55583Y-43119D01*
X55583Y-43119D02*
X55333Y-43369D01*
X54833Y-44369D02*
X55333Y-44369D01*
X54583Y-44119D02*
X54833Y-44369D01*
X55333Y-44369D02*
X55583Y-44119D01*
X55583Y-43619D02*
X55583Y-44119D01*
X54833Y-40369D02*
X55333Y-40369D01*
X55333Y-46373D02*
X55583Y-46623D01*
X55583Y-46623D02*
X55583Y-47123D01*
X55583Y-47123D02*
X55333Y-47373D01*
X54833Y-47373D02*
X54583Y-47123D01*
X54583Y-47123D02*
X54583Y-46623D01*
X54583Y-46623D02*
X54833Y-46373D01*
X55583Y-44623D02*
X55583Y-45123D01*
X55583Y-45123D02*
X55333Y-45373D01*
X54833Y-45373D02*
X54583Y-45123D01*
X55333Y-45373D02*
X55583Y-45623D01*
X55583Y-45623D02*
X55583Y-46123D01*
X55583Y-46123D02*
X55333Y-46373D01*
X54833Y-46373D02*
X54583Y-46123D01*
X54583Y-46123D02*
X54583Y-45623D01*
X54583Y-45623D02*
X54833Y-45373D01*
X55333Y-44373D02*
X54833Y-44373D01*
X55583Y-44623D02*
X55333Y-44373D01*
X54833Y-44373D02*
X54583Y-44623D01*
X54583Y-45123D02*
X54583Y-44623D01*
X55333Y-47373D02*
X54833Y-47373D01*
M02*
