M48
;DRILL file {Pcbnew (2013-jul-07)-stable} date Mon 28 Dec 2015 12:05:46 PM PST
;FORMAT={-:-/ absolute / inch / decimal}
FMAT,2
INCH,TZ
T1C0.025
T2C0.040
%
G90
G05
M72
T1
X5.6233Y-3.8385
X5.6697Y-3.694
X5.6697Y-4.3909
X5.7012Y-4.0129
X5.7052Y-3.6468
X5.717Y-4.1625
X5.7339Y-3.6161
X5.7886Y-3.9999
X5.7957Y-4.0326
X5.8193Y-4.2373
X5.8233Y-4.009
X5.8556Y-3.9999
X5.8626Y-4.3003
X5.8823Y-4.1822
X5.9296Y-4.4854
X5.9571Y-4.2295
X5.9847Y-3.9303
X5.9973Y-4.2677
X6.0477Y-4.2177
X6.0477Y-4.5484
X6.0831Y-4.5366
T2
X5.5083Y-3.5873
X5.5083Y-3.6873
X5.5083Y-3.7873
X5.5083Y-3.8873
X5.5083Y-3.9873
X5.5083Y-4.0869
X5.5083Y-4.1869
X5.5083Y-4.2869
X5.5083Y-4.3869
X5.5083Y-4.4873
X5.5083Y-4.5873
X5.5083Y-4.6873
X6.2071Y-3.5877
X6.2071Y-3.6877
X6.2071Y-3.7877
X6.2071Y-3.8877
X6.2071Y-3.9877
X6.2071Y-4.0877
X6.2071Y-4.1877
X6.2071Y-4.2877
X6.2071Y-4.3877
X6.2071Y-4.4877
X6.2071Y-4.5877
X6.2071Y-4.6877
T0
M30
