G04 (created by PCBNEW (2013-jul-07)-stable) date Mon 28 Dec 2015 12:05:22 PM PST*
%MOIN*%
G04 Gerber Fmt 3.4, Leading zero omitted, Abs format*
%FSLAX34Y34*%
G01*
G70*
G90*
G04 APERTURE LIST*
%ADD10C,0.00393701*%
%ADD11C,0.008*%
%ADD12C,0.006*%
%ADD13C,0.005*%
%ADD14C,0.004*%
%ADD15C,0.05*%
G04 APERTURE END LIST*
G54D10*
G54D11*
X56785Y-37087D02*
X59067Y-37087D01*
X59067Y-37087D02*
X59067Y-39369D01*
X59067Y-39369D02*
X56785Y-39369D01*
X56785Y-39369D02*
X56785Y-37087D01*
G54D12*
X56242Y-43446D02*
X56050Y-43446D01*
X56050Y-43270D02*
X56242Y-43270D01*
G54D13*
X56364Y-43238D02*
X56246Y-43238D01*
X56246Y-43238D02*
X56246Y-43474D01*
X56246Y-43474D02*
X56364Y-43474D01*
X56364Y-43474D02*
X56364Y-43238D01*
X56045Y-43238D02*
X55926Y-43238D01*
X55926Y-43238D02*
X55926Y-43474D01*
X55926Y-43474D02*
X56045Y-43474D01*
X56045Y-43474D02*
X56045Y-43238D01*
G54D14*
X56658Y-42905D02*
X56658Y-43259D01*
X56972Y-42905D02*
X56972Y-43259D01*
G54D13*
X56638Y-42905D02*
X56992Y-42905D01*
X56992Y-42905D02*
X56992Y-42748D01*
X56992Y-42748D02*
X56638Y-42748D01*
X56638Y-42748D02*
X56638Y-42905D01*
X56638Y-43416D02*
X56992Y-43416D01*
X56992Y-43416D02*
X56992Y-43259D01*
X56992Y-43259D02*
X56638Y-43259D01*
X56638Y-43259D02*
X56638Y-43416D01*
G54D12*
X55901Y-39399D02*
X55901Y-39207D01*
X56077Y-39207D02*
X56077Y-39399D01*
G54D13*
X56109Y-39521D02*
X56109Y-39403D01*
X56109Y-39403D02*
X55873Y-39403D01*
X55873Y-39403D02*
X55873Y-39521D01*
X55873Y-39521D02*
X56109Y-39521D01*
X56109Y-39202D02*
X56109Y-39083D01*
X56109Y-39083D02*
X55873Y-39083D01*
X55873Y-39083D02*
X55873Y-39202D01*
X55873Y-39202D02*
X56109Y-39202D01*
G54D12*
X58565Y-40612D02*
X58565Y-40804D01*
X58389Y-40804D02*
X58389Y-40612D01*
G54D13*
X58357Y-40490D02*
X58357Y-40608D01*
X58357Y-40608D02*
X58593Y-40608D01*
X58593Y-40608D02*
X58593Y-40490D01*
X58593Y-40490D02*
X58357Y-40490D01*
X58357Y-40809D02*
X58357Y-40928D01*
X58357Y-40928D02*
X58593Y-40928D01*
X58593Y-40928D02*
X58593Y-40809D01*
X58593Y-40809D02*
X58357Y-40809D01*
G54D12*
X59927Y-39876D02*
X59927Y-40068D01*
X59751Y-40068D02*
X59751Y-39876D01*
G54D13*
X59719Y-39754D02*
X59719Y-39872D01*
X59719Y-39872D02*
X59955Y-39872D01*
X59955Y-39872D02*
X59955Y-39754D01*
X59955Y-39754D02*
X59719Y-39754D01*
X59719Y-40073D02*
X59719Y-40192D01*
X59719Y-40192D02*
X59955Y-40192D01*
X59955Y-40192D02*
X59955Y-40073D01*
X59955Y-40073D02*
X59719Y-40073D01*
G54D12*
X56011Y-36026D02*
X56203Y-36026D01*
X56203Y-36202D02*
X56011Y-36202D01*
G54D13*
X55889Y-36234D02*
X56007Y-36234D01*
X56007Y-36234D02*
X56007Y-35998D01*
X56007Y-35998D02*
X55889Y-35998D01*
X55889Y-35998D02*
X55889Y-36234D01*
X56208Y-36234D02*
X56327Y-36234D01*
X56327Y-36234D02*
X56327Y-35998D01*
X56327Y-35998D02*
X56208Y-35998D01*
X56208Y-35998D02*
X56208Y-36234D01*
G54D12*
X58727Y-43821D02*
X58919Y-43821D01*
X58919Y-43997D02*
X58727Y-43997D01*
G54D13*
X58605Y-44029D02*
X58723Y-44029D01*
X58723Y-44029D02*
X58723Y-43793D01*
X58723Y-43793D02*
X58605Y-43793D01*
X58605Y-43793D02*
X58605Y-44029D01*
X58924Y-44029D02*
X59043Y-44029D01*
X59043Y-44029D02*
X59043Y-43793D01*
X59043Y-43793D02*
X58924Y-43793D01*
X58924Y-43793D02*
X58924Y-44029D01*
G54D12*
X56011Y-36498D02*
X56203Y-36498D01*
X56203Y-36674D02*
X56011Y-36674D01*
G54D13*
X55889Y-36706D02*
X56007Y-36706D01*
X56007Y-36706D02*
X56007Y-36470D01*
X56007Y-36470D02*
X55889Y-36470D01*
X55889Y-36470D02*
X55889Y-36706D01*
X56208Y-36706D02*
X56327Y-36706D01*
X56327Y-36706D02*
X56327Y-36470D01*
X56327Y-36470D02*
X56208Y-36470D01*
X56208Y-36470D02*
X56208Y-36706D01*
G54D12*
X59542Y-40644D02*
X59734Y-40644D01*
X59734Y-40820D02*
X59542Y-40820D01*
G54D13*
X59420Y-40852D02*
X59538Y-40852D01*
X59538Y-40852D02*
X59538Y-40616D01*
X59538Y-40616D02*
X59420Y-40616D01*
X59420Y-40616D02*
X59420Y-40852D01*
X59739Y-40852D02*
X59858Y-40852D01*
X59858Y-40852D02*
X59858Y-40616D01*
X59858Y-40616D02*
X59739Y-40616D01*
X59739Y-40616D02*
X59739Y-40852D01*
G54D12*
X59542Y-41152D02*
X59734Y-41152D01*
X59734Y-41328D02*
X59542Y-41328D01*
G54D13*
X59420Y-41360D02*
X59538Y-41360D01*
X59538Y-41360D02*
X59538Y-41124D01*
X59538Y-41124D02*
X59420Y-41124D01*
X59420Y-41124D02*
X59420Y-41360D01*
X59739Y-41360D02*
X59858Y-41360D01*
X59858Y-41360D02*
X59858Y-41124D01*
X59858Y-41124D02*
X59739Y-41124D01*
X59739Y-41124D02*
X59739Y-41360D01*
G54D12*
X59037Y-40927D02*
X59037Y-41119D01*
X58861Y-41119D02*
X58861Y-40927D01*
G54D13*
X58829Y-40805D02*
X58829Y-40923D01*
X58829Y-40923D02*
X59065Y-40923D01*
X59065Y-40923D02*
X59065Y-40805D01*
X59065Y-40805D02*
X58829Y-40805D01*
X58829Y-41124D02*
X58829Y-41243D01*
X58829Y-41243D02*
X59065Y-41243D01*
X59065Y-41243D02*
X59065Y-41124D01*
X59065Y-41124D02*
X58829Y-41124D01*
G54D12*
X59037Y-42344D02*
X59037Y-42536D01*
X58861Y-42536D02*
X58861Y-42344D01*
G54D13*
X58829Y-42222D02*
X58829Y-42340D01*
X58829Y-42340D02*
X59065Y-42340D01*
X59065Y-42340D02*
X59065Y-42222D01*
X59065Y-42222D02*
X58829Y-42222D01*
X58829Y-42541D02*
X58829Y-42660D01*
X58829Y-42660D02*
X59065Y-42660D01*
X59065Y-42660D02*
X59065Y-42541D01*
X59065Y-42541D02*
X58829Y-42541D01*
G54D12*
X57351Y-43171D02*
X57404Y-43171D01*
X57584Y-43171D02*
X57660Y-43171D01*
X57840Y-43171D02*
X57915Y-43171D01*
X58095Y-43171D02*
X58171Y-43171D01*
X58351Y-43171D02*
X58389Y-43171D01*
X57366Y-41892D02*
X57404Y-41892D01*
X57584Y-41892D02*
X57660Y-41892D01*
X57840Y-41892D02*
X57915Y-41892D01*
X58095Y-41892D02*
X58171Y-41892D01*
X58351Y-41892D02*
X58389Y-41892D01*
G54D13*
X57446Y-41892D02*
X57542Y-41892D01*
X57542Y-41892D02*
X57542Y-41604D01*
X57542Y-41604D02*
X57446Y-41604D01*
X57446Y-41604D02*
X57446Y-41892D01*
X57702Y-41892D02*
X57798Y-41892D01*
X57798Y-41892D02*
X57798Y-41604D01*
X57798Y-41604D02*
X57702Y-41604D01*
X57702Y-41604D02*
X57702Y-41892D01*
X57957Y-41892D02*
X58053Y-41892D01*
X58053Y-41892D02*
X58053Y-41604D01*
X58053Y-41604D02*
X57957Y-41604D01*
X57957Y-41604D02*
X57957Y-41892D01*
X58213Y-41892D02*
X58309Y-41892D01*
X58309Y-41892D02*
X58309Y-41604D01*
X58309Y-41604D02*
X58213Y-41604D01*
X58213Y-41604D02*
X58213Y-41892D01*
X57446Y-43458D02*
X57542Y-43458D01*
X57542Y-43458D02*
X57542Y-43171D01*
X57542Y-43171D02*
X57446Y-43171D01*
X57446Y-43171D02*
X57446Y-43458D01*
X57702Y-43458D02*
X57798Y-43458D01*
X57798Y-43458D02*
X57798Y-43171D01*
X57798Y-43171D02*
X57702Y-43171D01*
X57702Y-43171D02*
X57702Y-43458D01*
X57957Y-43458D02*
X58053Y-43458D01*
X58053Y-43458D02*
X58053Y-43171D01*
X58053Y-43171D02*
X57957Y-43171D01*
X57957Y-43171D02*
X57957Y-43458D01*
X58213Y-43458D02*
X58309Y-43458D01*
X58309Y-43458D02*
X58309Y-43171D01*
X58309Y-43171D02*
X58213Y-43171D01*
X58213Y-43171D02*
X58213Y-43458D01*
G54D12*
X57389Y-43821D02*
X57581Y-43821D01*
X57581Y-43997D02*
X57389Y-43997D01*
G54D13*
X57267Y-44029D02*
X57385Y-44029D01*
X57385Y-44029D02*
X57385Y-43793D01*
X57385Y-43793D02*
X57267Y-43793D01*
X57267Y-43793D02*
X57267Y-44029D01*
X57586Y-44029D02*
X57705Y-44029D01*
X57705Y-44029D02*
X57705Y-43793D01*
X57705Y-43793D02*
X57586Y-43793D01*
X57586Y-43793D02*
X57586Y-44029D01*
G54D12*
X59359Y-43210D02*
X59412Y-43210D01*
X59592Y-43210D02*
X59668Y-43210D01*
X59848Y-43210D02*
X59923Y-43210D01*
X60103Y-43210D02*
X60179Y-43210D01*
X60359Y-43210D02*
X60397Y-43210D01*
X59374Y-41931D02*
X59412Y-41931D01*
X59592Y-41931D02*
X59668Y-41931D01*
X59848Y-41931D02*
X59923Y-41931D01*
X60103Y-41931D02*
X60179Y-41931D01*
X60359Y-41931D02*
X60397Y-41931D01*
G54D13*
X59454Y-41931D02*
X59550Y-41931D01*
X59550Y-41931D02*
X59550Y-41643D01*
X59550Y-41643D02*
X59454Y-41643D01*
X59454Y-41643D02*
X59454Y-41931D01*
X59710Y-41931D02*
X59806Y-41931D01*
X59806Y-41931D02*
X59806Y-41643D01*
X59806Y-41643D02*
X59710Y-41643D01*
X59710Y-41643D02*
X59710Y-41931D01*
X59965Y-41931D02*
X60061Y-41931D01*
X60061Y-41931D02*
X60061Y-41643D01*
X60061Y-41643D02*
X59965Y-41643D01*
X59965Y-41643D02*
X59965Y-41931D01*
X60221Y-41931D02*
X60317Y-41931D01*
X60317Y-41931D02*
X60317Y-41643D01*
X60317Y-41643D02*
X60221Y-41643D01*
X60221Y-41643D02*
X60221Y-41931D01*
X59454Y-43497D02*
X59550Y-43497D01*
X59550Y-43497D02*
X59550Y-43210D01*
X59550Y-43210D02*
X59454Y-43210D01*
X59454Y-43210D02*
X59454Y-43497D01*
X59710Y-43497D02*
X59806Y-43497D01*
X59806Y-43497D02*
X59806Y-43210D01*
X59806Y-43210D02*
X59710Y-43210D01*
X59710Y-43210D02*
X59710Y-43497D01*
X59965Y-43497D02*
X60061Y-43497D01*
X60061Y-43497D02*
X60061Y-43210D01*
X60061Y-43210D02*
X59965Y-43210D01*
X59965Y-43210D02*
X59965Y-43497D01*
X60221Y-43497D02*
X60317Y-43497D01*
X60317Y-43497D02*
X60317Y-43210D01*
X60317Y-43210D02*
X60221Y-43210D01*
X60221Y-43210D02*
X60221Y-43497D01*
G54D12*
X56825Y-41805D02*
X56825Y-41997D01*
X56649Y-41997D02*
X56649Y-41805D01*
G54D13*
X56617Y-41683D02*
X56617Y-41801D01*
X56617Y-41801D02*
X56853Y-41801D01*
X56853Y-41801D02*
X56853Y-41683D01*
X56853Y-41683D02*
X56617Y-41683D01*
X56617Y-42002D02*
X56617Y-42121D01*
X56617Y-42121D02*
X56853Y-42121D01*
X56853Y-42121D02*
X56853Y-42002D01*
X56853Y-42002D02*
X56617Y-42002D01*
G54D12*
X58124Y-40860D02*
X58124Y-41052D01*
X57948Y-41052D02*
X57948Y-40860D01*
G54D13*
X57916Y-40738D02*
X57916Y-40856D01*
X57916Y-40856D02*
X58152Y-40856D01*
X58152Y-40856D02*
X58152Y-40738D01*
X58152Y-40738D02*
X57916Y-40738D01*
X57916Y-41057D02*
X57916Y-41176D01*
X57916Y-41176D02*
X58152Y-41176D01*
X58152Y-41176D02*
X58152Y-41057D01*
X58152Y-41057D02*
X57916Y-41057D01*
G54D11*
X56678Y-40523D02*
X57582Y-40523D01*
X57582Y-40523D02*
X57582Y-41231D01*
X57582Y-41231D02*
X56678Y-41231D01*
X56678Y-41231D02*
X56678Y-40523D01*
X57918Y-47333D02*
X57918Y-45445D01*
X59414Y-45445D02*
X59414Y-47333D01*
X58115Y-47333D02*
X58115Y-45445D01*
G54D13*
X57446Y-45543D02*
X57446Y-45736D01*
X57446Y-45736D02*
X57879Y-45736D01*
X57879Y-45736D02*
X57879Y-45543D01*
X57879Y-45543D02*
X57446Y-45543D01*
X57446Y-46043D02*
X57446Y-46236D01*
X57446Y-46236D02*
X57879Y-46236D01*
X57879Y-46236D02*
X57879Y-46043D01*
X57879Y-46043D02*
X57446Y-46043D01*
X57446Y-46542D02*
X57446Y-46735D01*
X57446Y-46735D02*
X57879Y-46735D01*
X57879Y-46735D02*
X57879Y-46542D01*
X57879Y-46542D02*
X57446Y-46542D01*
X57446Y-47042D02*
X57446Y-47235D01*
X57446Y-47235D02*
X57879Y-47235D01*
X57879Y-47235D02*
X57879Y-47042D01*
X57879Y-47042D02*
X57446Y-47042D01*
X59453Y-47042D02*
X59453Y-47235D01*
X59453Y-47235D02*
X59886Y-47235D01*
X59886Y-47235D02*
X59886Y-47042D01*
X59886Y-47042D02*
X59453Y-47042D01*
X59453Y-46542D02*
X59453Y-46735D01*
X59453Y-46735D02*
X59886Y-46735D01*
X59886Y-46735D02*
X59886Y-46542D01*
X59886Y-46542D02*
X59453Y-46542D01*
X59453Y-46043D02*
X59453Y-46236D01*
X59453Y-46236D02*
X59886Y-46236D01*
X59886Y-46236D02*
X59886Y-46043D01*
X59886Y-46043D02*
X59453Y-46043D01*
X59453Y-45543D02*
X59453Y-45736D01*
X59453Y-45736D02*
X59886Y-45736D01*
X59886Y-45736D02*
X59886Y-45543D01*
X59886Y-45543D02*
X59453Y-45543D01*
G54D12*
X60389Y-46446D02*
X60389Y-46254D01*
X60565Y-46254D02*
X60565Y-46446D01*
G54D13*
X60597Y-46568D02*
X60597Y-46450D01*
X60597Y-46450D02*
X60361Y-46450D01*
X60361Y-46450D02*
X60361Y-46568D01*
X60361Y-46568D02*
X60597Y-46568D01*
X60597Y-46249D02*
X60597Y-46130D01*
X60597Y-46130D02*
X60361Y-46130D01*
X60361Y-46130D02*
X60361Y-46249D01*
X60361Y-46249D02*
X60597Y-46249D01*
G54D12*
X56982Y-46293D02*
X56982Y-46485D01*
X56806Y-46485D02*
X56806Y-46293D01*
G54D13*
X56774Y-46171D02*
X56774Y-46289D01*
X56774Y-46289D02*
X57010Y-46289D01*
X57010Y-46289D02*
X57010Y-46171D01*
X57010Y-46171D02*
X56774Y-46171D01*
X56774Y-46490D02*
X56774Y-46609D01*
X56774Y-46609D02*
X57010Y-46609D01*
X57010Y-46609D02*
X57010Y-46490D01*
X57010Y-46490D02*
X56774Y-46490D01*
G54D12*
X56806Y-45147D02*
X56806Y-44955D01*
X56982Y-44955D02*
X56982Y-45147D01*
G54D13*
X57014Y-45269D02*
X57014Y-45151D01*
X57014Y-45151D02*
X56778Y-45151D01*
X56778Y-45151D02*
X56778Y-45269D01*
X56778Y-45269D02*
X57014Y-45269D01*
X57014Y-44950D02*
X57014Y-44831D01*
X57014Y-44831D02*
X56778Y-44831D01*
X56778Y-44831D02*
X56778Y-44950D01*
X56778Y-44950D02*
X57014Y-44950D01*
G54D12*
X61058Y-46446D02*
X61058Y-46254D01*
X61234Y-46254D02*
X61234Y-46446D01*
G54D13*
X61266Y-46568D02*
X61266Y-46450D01*
X61266Y-46450D02*
X61030Y-46450D01*
X61030Y-46450D02*
X61030Y-46568D01*
X61030Y-46568D02*
X61266Y-46568D01*
X61266Y-46249D02*
X61266Y-46130D01*
X61266Y-46130D02*
X61030Y-46130D01*
X61030Y-46130D02*
X61030Y-46249D01*
X61030Y-46249D02*
X61266Y-46249D01*
G54D12*
X57581Y-44469D02*
X57389Y-44469D01*
X57389Y-44293D02*
X57581Y-44293D01*
G54D13*
X57703Y-44261D02*
X57585Y-44261D01*
X57585Y-44261D02*
X57585Y-44497D01*
X57585Y-44497D02*
X57703Y-44497D01*
X57703Y-44497D02*
X57703Y-44261D01*
X57384Y-44261D02*
X57265Y-44261D01*
X57265Y-44261D02*
X57265Y-44497D01*
X57265Y-44497D02*
X57384Y-44497D01*
X57384Y-44497D02*
X57384Y-44261D01*
G54D12*
X56050Y-45356D02*
X56242Y-45356D01*
X56242Y-45532D02*
X56050Y-45532D01*
G54D13*
X55928Y-45564D02*
X56046Y-45564D01*
X56046Y-45564D02*
X56046Y-45328D01*
X56046Y-45328D02*
X55928Y-45328D01*
X55928Y-45328D02*
X55928Y-45564D01*
X56247Y-45564D02*
X56366Y-45564D01*
X56366Y-45564D02*
X56366Y-45328D01*
X56366Y-45328D02*
X56247Y-45328D01*
X56247Y-45328D02*
X56247Y-45564D01*
G54D12*
X59965Y-44584D02*
X59965Y-44784D01*
X59965Y-43784D02*
X59965Y-43584D01*
G54D15*
X60015Y-44084D02*
G75*
G02X59915Y-44084I-50J0D01*
G74*
G01*
X59915Y-44284D02*
G75*
G02X60015Y-44284I50J0D01*
G74*
G01*
G54D12*
X58626Y-44584D02*
X58626Y-44784D01*
X58626Y-43784D02*
X58626Y-43584D01*
G54D15*
X58676Y-44084D02*
G75*
G02X58576Y-44084I-50J0D01*
G74*
G01*
X58576Y-44284D02*
G75*
G02X58676Y-44284I50J0D01*
G74*
G01*
G54D12*
X58626Y-45792D02*
X58626Y-45592D01*
X58626Y-46592D02*
X58626Y-46792D01*
G54D15*
X58576Y-46292D02*
G75*
G02X58676Y-46292I50J0D01*
G74*
G01*
X58676Y-46092D02*
G75*
G02X58576Y-46092I-50J0D01*
G74*
G01*
G54D14*
X58803Y-44697D02*
X58449Y-44697D01*
X58803Y-45011D02*
X58449Y-45011D01*
G54D13*
X58803Y-44677D02*
X58803Y-45031D01*
X58803Y-45031D02*
X58960Y-45031D01*
X58960Y-45031D02*
X58960Y-44677D01*
X58960Y-44677D02*
X58803Y-44677D01*
X58292Y-44677D02*
X58292Y-45031D01*
X58292Y-45031D02*
X58449Y-45031D01*
X58449Y-45031D02*
X58449Y-44677D01*
X58449Y-44677D02*
X58292Y-44677D01*
G54D12*
X57699Y-44942D02*
X57507Y-44942D01*
X57507Y-44766D02*
X57699Y-44766D01*
G54D13*
X57821Y-44734D02*
X57703Y-44734D01*
X57703Y-44734D02*
X57703Y-44970D01*
X57703Y-44970D02*
X57821Y-44970D01*
X57821Y-44970D02*
X57821Y-44734D01*
X57502Y-44734D02*
X57383Y-44734D01*
X57383Y-44734D02*
X57383Y-44970D01*
X57383Y-44970D02*
X57502Y-44970D01*
X57502Y-44970D02*
X57502Y-44734D01*
G54D12*
X56050Y-46341D02*
X56242Y-46341D01*
X56242Y-46517D02*
X56050Y-46517D01*
G54D13*
X55928Y-46549D02*
X56046Y-46549D01*
X56046Y-46549D02*
X56046Y-46313D01*
X56046Y-46313D02*
X55928Y-46313D01*
X55928Y-46313D02*
X55928Y-46549D01*
X56247Y-46549D02*
X56366Y-46549D01*
X56366Y-46549D02*
X56366Y-46313D01*
X56366Y-46313D02*
X56247Y-46313D01*
X56247Y-46313D02*
X56247Y-46549D01*
X55183Y-35973D02*
X55183Y-35773D01*
X55183Y-35773D02*
X54983Y-35773D01*
X54983Y-35773D02*
X54983Y-35973D01*
X54983Y-35973D02*
X55183Y-35973D01*
X55183Y-36973D02*
X55183Y-36773D01*
X55183Y-36773D02*
X54983Y-36773D01*
X54983Y-36773D02*
X54983Y-36973D01*
X54983Y-36973D02*
X55183Y-36973D01*
X55183Y-37973D02*
X55183Y-37773D01*
X55183Y-37773D02*
X54983Y-37773D01*
X54983Y-37773D02*
X54983Y-37973D01*
X54983Y-37973D02*
X55183Y-37973D01*
X55183Y-38973D02*
X55183Y-38773D01*
X55183Y-38773D02*
X54983Y-38773D01*
X54983Y-38773D02*
X54983Y-38973D01*
X54983Y-38973D02*
X55183Y-38973D01*
X55183Y-39973D02*
X55183Y-39773D01*
X55183Y-39773D02*
X54983Y-39773D01*
X54983Y-39773D02*
X54983Y-39973D01*
X54983Y-39973D02*
X55183Y-39973D01*
X61971Y-41777D02*
X61971Y-41977D01*
X61971Y-41977D02*
X62171Y-41977D01*
X62171Y-41977D02*
X62171Y-41777D01*
X62171Y-41777D02*
X61971Y-41777D01*
X61971Y-40777D02*
X61971Y-40977D01*
X61971Y-40977D02*
X62171Y-40977D01*
X62171Y-40977D02*
X62171Y-40777D01*
X62171Y-40777D02*
X61971Y-40777D01*
X61971Y-39777D02*
X61971Y-39977D01*
X61971Y-39977D02*
X62171Y-39977D01*
X62171Y-39977D02*
X62171Y-39777D01*
X62171Y-39777D02*
X61971Y-39777D01*
X61971Y-38777D02*
X61971Y-38977D01*
X61971Y-38977D02*
X62171Y-38977D01*
X62171Y-38977D02*
X62171Y-38777D01*
X62171Y-38777D02*
X61971Y-38777D01*
X61971Y-37777D02*
X61971Y-37977D01*
X61971Y-37977D02*
X62171Y-37977D01*
X62171Y-37977D02*
X62171Y-37777D01*
X62171Y-37777D02*
X61971Y-37777D01*
X61971Y-36777D02*
X61971Y-36977D01*
X61971Y-36977D02*
X62171Y-36977D01*
X62171Y-36977D02*
X62171Y-36777D01*
X62171Y-36777D02*
X61971Y-36777D01*
X61971Y-35777D02*
X61971Y-35977D01*
X61971Y-35977D02*
X62171Y-35977D01*
X62171Y-35977D02*
X62171Y-35777D01*
X62171Y-35777D02*
X61971Y-35777D01*
X61971Y-42777D02*
X61971Y-42977D01*
X61971Y-42977D02*
X62171Y-42977D01*
X62171Y-42977D02*
X62171Y-42777D01*
X62171Y-42777D02*
X61971Y-42777D01*
X61971Y-43777D02*
X61971Y-43977D01*
X61971Y-43977D02*
X62171Y-43977D01*
X62171Y-43977D02*
X62171Y-43777D01*
X62171Y-43777D02*
X61971Y-43777D01*
X61971Y-44777D02*
X61971Y-44977D01*
X61971Y-44977D02*
X62171Y-44977D01*
X62171Y-44977D02*
X62171Y-44777D01*
X62171Y-44777D02*
X61971Y-44777D01*
X61971Y-45777D02*
X61971Y-45977D01*
X61971Y-45977D02*
X62171Y-45977D01*
X62171Y-45977D02*
X62171Y-45777D01*
X62171Y-45777D02*
X61971Y-45777D01*
X61971Y-46777D02*
X61971Y-46977D01*
X61971Y-46977D02*
X62171Y-46977D01*
X62171Y-46977D02*
X62171Y-46777D01*
X62171Y-46777D02*
X61971Y-46777D01*
X55183Y-40969D02*
X55183Y-40769D01*
X55183Y-40769D02*
X54983Y-40769D01*
X54983Y-40769D02*
X54983Y-40969D01*
X54983Y-40969D02*
X55183Y-40969D01*
X55183Y-41969D02*
X55183Y-41769D01*
X55183Y-41769D02*
X54983Y-41769D01*
X54983Y-41769D02*
X54983Y-41969D01*
X54983Y-41969D02*
X55183Y-41969D01*
X55183Y-42969D02*
X55183Y-42769D01*
X55183Y-42769D02*
X54983Y-42769D01*
X54983Y-42769D02*
X54983Y-42969D01*
X54983Y-42969D02*
X55183Y-42969D01*
X55183Y-43969D02*
X55183Y-43769D01*
X55183Y-43769D02*
X54983Y-43769D01*
X54983Y-43769D02*
X54983Y-43969D01*
X54983Y-43969D02*
X55183Y-43969D01*
X54983Y-46773D02*
X54983Y-46973D01*
X54983Y-46973D02*
X55183Y-46973D01*
X55183Y-46973D02*
X55183Y-46773D01*
X55183Y-46773D02*
X54983Y-46773D01*
X54983Y-45773D02*
X54983Y-45973D01*
X54983Y-45973D02*
X55183Y-45973D01*
X55183Y-45973D02*
X55183Y-45773D01*
X55183Y-45773D02*
X54983Y-45773D01*
X54983Y-44773D02*
X54983Y-44973D01*
X54983Y-44973D02*
X55183Y-44973D01*
X55183Y-44973D02*
X55183Y-44773D01*
X55183Y-44773D02*
X54983Y-44773D01*
M02*
