  0
SECTION
  2
HEADER
  9
$ANGBASE
  50
0.0
  9
$ANGDIR
  70
  1
  9
$MEASUREMENT
  70
0
  0
ENDSEC
  0
SECTION
  2
TABLES
  0
TABLE
  2
LTYPE
  70
1
  0
LTYPE
  2
CONTINUOUS
  70
0
  3
Solid line
  72
65
  73
0
  40
0.0
  0
ENDTAB
  0
TABLE
  2
STYLE
  70
4
  0
STYLE
  2
KICAD
  70
0
  40
0
  41
1
  42
1
  50
0
  71
0
  3
isocp.shx
  0
STYLE
  2
KICADB
  70
0
  40
0
  41
1
  42
1
  50
0
  71
0
  3
isocp.shx
  0
STYLE
  2
KICADI
  70
0
  40
0
  41
1
  42
1
  50
15
  71
0
  3
isocp.shx
  0
STYLE
  2
KICADBI
  70
0
  40
0
  41
1
  42
1
  50
15
  71
0
  3
isocp.shx
  0
ENDTAB
  0
TABLE
  2
LAYER
  70
24
  0
LAYER
  2
BLACK
  70
0
  62
250
  6
CONTINUOUS
  0
LAYER
  2
BLUE
  70
0
  62
5
  6
CONTINUOUS
  0
LAYER
  2
GREEN
  70
0
  62
3
  6
CONTINUOUS
  0
LAYER
  2
CYAN
  70
0
  62
4
  6
CONTINUOUS
  0
LAYER
  2
RED
  70
0
  62
1
  6
CONTINUOUS
  0
LAYER
  2
MAGENTA
  70
0
  62
6
  6
CONTINUOUS
  0
LAYER
  2
BROWN
  70
0
  62
54
  6
CONTINUOUS
  0
LAYER
  2
LIGHTGRAY
  70
0
  62
9
  6
CONTINUOUS
  0
LAYER
  2
DARKGRAY
  70
0
  62
8
  6
CONTINUOUS
  0
LAYER
  2
LIGHTBLUE
  70
0
  62
171
  6
CONTINUOUS
  0
LAYER
  2
LIGHTGREEN
  70
0
  62
91
  6
CONTINUOUS
  0
LAYER
  2
LIGHTCYAN
  70
0
  62
131
  6
CONTINUOUS
  0
LAYER
  2
LIGHTRED
  70
0
  62
11
  6
CONTINUOUS
  0
LAYER
  2
LIGHTMAGENTA
  70
0
  62
221
  6
CONTINUOUS
  0
LAYER
  2
YELLOW
  70
0
  62
2
  6
CONTINUOUS
  0
LAYER
  2
WHITE
  70
0
  62
7
  6
CONTINUOUS
  0
LAYER
  2
DARKDARKGRAY
  70
0
  62
251
  6
CONTINUOUS
  0
LAYER
  2
DARKBLUE
  70
0
  62
178
  6
CONTINUOUS
  0
LAYER
  2
DARKGREEN
  70
0
  62
98
  6
CONTINUOUS
  0
LAYER
  2
DARKCYAN
  70
0
  62
138
  6
CONTINUOUS
  0
LAYER
  2
DARKRED
  70
0
  62
18
  6
CONTINUOUS
  0
LAYER
  2
DARKMAGENTA
  70
0
  62
228
  6
CONTINUOUS
  0
LAYER
  2
DARKBROWN
  70
0
  62
58
  6
CONTINUOUS
  0
LAYER
  2
LIGHTYELLOW
  70
0
  62
51
  6
CONTINUOUS
  0
ENDTAB
  0
ENDSEC
  0
SECTION
  2
ENTITIES
0
LINE
8
BLACK
10
138.311
20
-120.623
11
159.271
21
-120.623
0
LINE
8
BLACK
10
138.311
20
-120.623
11
159.271
21
-120.623
0
LINE
8
BLACK
10
159.271
20
-120.627
11
159.271
21
-89.4537
0
LINE
8
BLACK
10
159.271
20
-120.627
11
159.271
21
-89.4537
0
LINE
8
BLACK
10
138.311
20
-89.4537
11
159.271
21
-89.4537
0
LINE
8
BLACK
10
138.311
20
-89.4537
11
159.271
21
-89.4537
0
LINE
8
BLACK
10
138.311
20
-120.62
11
138.311
21
-89.4537
0
LINE
8
BLACK
10
138.311
20
-120.62
11
138.311
21
-89.4537
0
LINE
8
BLACK
10
142.514
20
-97.1804
11
143.149
21
-97.8154
0
LINE
8
BLACK
10
143.149
20
-97.1804
11
142.514
21
-97.8154
0
LINE
8
BLACK
10
143.693
20
-93.5101
11
144.328
21
-94.1451
0
LINE
8
BLACK
10
144.328
20
-93.5101
11
143.693
21
-94.1451
0
LINE
8
BLACK
10
143.693
20
-111.211
11
144.328
21
-111.846
0
LINE
8
BLACK
10
144.328
20
-111.211
11
143.693
21
-111.846
0
LINE
8
BLACK
10
144.493
20
-101.61
11
145.128
21
-102.245
0
LINE
8
BLACK
10
145.128
20
-101.61
11
144.493
21
-102.245
0
LINE
8
BLACK
10
144.595
20
-92.3112
11
145.23
21
-92.9462
0
LINE
8
BLACK
10
145.23
20
-92.3112
11
144.595
21
-92.9462
0
LINE
8
BLACK
10
144.894
20
-105.41
11
145.529
21
-106.045
0
LINE
8
BLACK
10
145.529
20
-105.41
11
144.894
21
-106.045
0
LINE
8
BLACK
10
145.324
20
-91.5314
11
145.959
21
-92.1664
0
LINE
8
BLACK
10
145.959
20
-91.5314
11
145.324
21
-92.1664
0
LINE
8
BLACK
10
146.713
20
-101.28
11
147.348
21
-101.915
0
LINE
8
BLACK
10
147.348
20
-101.28
11
146.713
21
-101.915
0
LINE
8
BLACK
10
146.893
20
-102.111
11
147.528
21
-102.746
0
LINE
8
BLACK
10
147.528
20
-102.111
11
146.893
21
-102.746
0
LINE
8
BLACK
10
147.493
20
-107.31
11
148.128
21
-107.945
0
LINE
8
BLACK
10
148.128
20
-107.31
11
147.493
21
-107.945
0
LINE
8
BLACK
10
147.594
20
-101.511
11
148.229
21
-102.146
0
LINE
8
BLACK
10
148.229
20
-101.511
11
147.594
21
-102.146
0
LINE
8
BLACK
10
148.415
20
-101.28
11
149.05
21
-101.915
0
LINE
8
BLACK
10
149.05
20
-101.28
11
148.415
21
-101.915
0
LINE
8
BLACK
10
148.593
20
-108.91
11
149.228
21
-109.545
0
LINE
8
BLACK
10
149.228
20
-108.91
11
148.593
21
-109.545
0
LINE
8
BLACK
10
149.093
20
-105.91
11
149.728
21
-106.545
0
LINE
8
BLACK
10
149.728
20
-105.91
11
149.093
21
-106.545
0
LINE
8
BLACK
10
150.294
20
-113.612
11
150.929
21
-114.247
0
LINE
8
BLACK
10
150.929
20
-113.612
11
150.294
21
-114.247
0
LINE
8
BLACK
10
150.993
20
-107.112
11
151.628
21
-107.747
0
LINE
8
BLACK
10
151.628
20
-107.112
11
150.993
21
-107.747
0
LINE
8
BLACK
10
151.694
20
-99.5121
11
152.329
21
-100.147
0
LINE
8
BLACK
10
152.329
20
-99.5121
11
151.694
21
-100.147
0
LINE
8
BLACK
10
152.014
20
-108.082
11
152.649
21
-108.717
0
LINE
8
BLACK
10
152.649
20
-108.082
11
152.014
21
-108.717
0
LINE
8
BLACK
10
153.294
20
-106.812
11
153.929
21
-107.447
0
LINE
8
BLACK
10
153.929
20
-106.812
11
153.294
21
-107.447
0
LINE
8
BLACK
10
153.294
20
-115.212
11
153.929
21
-115.847
0
LINE
8
BLACK
10
153.929
20
-115.212
11
153.294
21
-115.847
0
LINE
8
BLACK
10
154.193
20
-114.912
11
154.828
21
-115.547
0
LINE
8
BLACK
10
154.828
20
-114.912
11
154.193
21
-115.547
0
CIRCLE
8
BLACK
10
139.911
20
-91.1174
40
0.508
0
CIRCLE
8
BLACK
10
139.911
20
-93.6574
40
0.508
0
CIRCLE
8
BLACK
10
139.911
20
-96.1974
40
0.508
0
CIRCLE
8
BLACK
10
139.911
20
-98.7374
40
0.508
0
CIRCLE
8
BLACK
10
139.911
20
-101.277
40
0.508
0
CIRCLE
8
BLACK
10
139.911
20
-103.807
40
0.508
0
CIRCLE
8
BLACK
10
139.911
20
-106.347
40
0.508
0
CIRCLE
8
BLACK
10
139.911
20
-108.887
40
0.508
0
CIRCLE
8
BLACK
10
139.911
20
-111.427
40
0.508
0
CIRCLE
8
BLACK
10
139.911
20
-113.977
40
0.508
0
CIRCLE
8
BLACK
10
139.911
20
-116.517
40
0.508
0
CIRCLE
8
BLACK
10
139.911
20
-119.057
40
0.508
0
CIRCLE
8
BLACK
10
157.66
20
-91.1276
40
0.508
0
CIRCLE
8
BLACK
10
157.66
20
-93.6676
40
0.508
0
CIRCLE
8
BLACK
10
157.66
20
-96.2076
40
0.508
0
CIRCLE
8
BLACK
10
157.66
20
-98.7476
40
0.508
0
CIRCLE
8
BLACK
10
157.66
20
-101.288
40
0.508
0
CIRCLE
8
BLACK
10
157.66
20
-103.828
40
0.508
0
CIRCLE
8
BLACK
10
157.66
20
-106.368
40
0.508
0
CIRCLE
8
BLACK
10
157.66
20
-108.908
40
0.508
0
CIRCLE
8
BLACK
10
157.66
20
-111.448
40
0.508
0
CIRCLE
8
BLACK
10
157.66
20
-113.988
40
0.508
0
CIRCLE
8
BLACK
10
157.66
20
-116.528
40
0.508
0
CIRCLE
8
BLACK
10
157.66
20
-119.068
40
0.508
  0
TEXT
  7
KICAD
  8
BLACK
  10
140.311
  11
140.311
  20
-123.927
  21
-123.927
  40
3
  41
1
  50
0
  51
0
  71
0
  72
0
  73
2
  1
Drill Map:
0
LINE
8
BLACK
10
137.676
20
-129.91
11
138.311
21
-130.545
0
LINE
8
BLACK
10
138.311
20
-129.91
11
137.676
21
-130.545
  0
TEXT
  7
KICAD
  8
BLACK
  10
140.311
  11
140.311
  20
-130.227
  21
-130.227
  40
3
  41
1
  50
0
  51
0
  71
0
  72
0
  73
2
  1
0.64mm / 0.025" (21 holes)
0
CIRCLE
8
BLACK
10
137.803
20
-134.187
40
0.508
  0
TEXT
  7
KICAD
  8
BLACK
  10
140.311
  11
140.311
  20
-134.187
  21
-134.187
  40
3
  41
1
  50
0
  51
0
  71
0
  72
0
  73
2
  1
1.02mm / 0.040" (24 holes)
  0
ENDSEC
  0
EOF
